<svg width="35" height="22" viewBox="0 0 35 22" fill="currentColor" xmlns="http://www.w3.org/2000/svg">
<g clip-path="url(#clip0_232_2)">
<path d="M33.15 0H1.85C0.828273 0 0 0.828273 0 1.85V1.86C0 2.88173 0.828273 3.71 1.85 3.71H33.15C34.1717 3.71 35 2.88173 35 1.86V1.85C35 0.828273 34.1717 0 33.15 0Z"/>
<path d="M24.41 9.1499H10.59C9.56828 9.1499 8.74001 9.97818 8.74001 10.9999V11.0099C8.74001 12.0316 9.56828 12.8599 10.59 12.8599H24.41C25.4317 12.8599 26.26 12.0316 26.26 11.0099V10.9999C26.26 9.97818 25.4317 9.1499 24.41 9.1499Z"/>
<path d="M33.15 18.29H1.85C0.828273 18.29 0 19.1183 0 20.14V20.15C0 21.1718 0.828273 22 1.85 22H33.15C34.1717 22 35 21.1718 35 20.15V20.14C35 19.1183 34.1717 18.29 33.15 18.29Z"/>
</g>
<defs>
<clipPath id="clip0_232_2">
<rect width="35" height="22"/>
</clipPath>
</defs>
</svg>
