<svg width="26" height="26" viewBox="0 0 26 26" fill="none" xmlns="http://www.w3.org/2000/svg">
<path fill-rule="evenodd" clip-rule="evenodd" d="M1.96015 1.96031C1.37441 2.54605 1.37441 3.49588 1.96015 4.08163L10.799 12.9205L1.96015 21.7593C1.37441 22.345 1.37441 23.2949 1.96015 23.8806C2.5459 24.4664 3.49573 24.4664 4.08147 23.8806L12.9203 15.0418L21.7591 23.8806C22.3449 24.4664 23.2947 24.4664 23.8805 23.8806C24.4662 23.2949 24.4662 22.345 23.8805 21.7593L15.0416 12.9205L23.8805 4.08163C24.4662 3.49588 24.4662 2.54605 23.8805 1.96031C23.2947 1.37456 22.3449 1.37456 21.7591 1.96031L12.9203 10.7991L4.08147 1.96031C3.49573 1.37456 2.5459 1.37456 1.96015 1.96031Z" fill="#D9D9D9"/>
<path fill-rule="evenodd" clip-rule="evenodd" d="M1.25295 4.78873C0.276685 3.81246 0.276684 2.22947 1.25295 1.2532C2.22922 0.276929 3.81222 0.276929 4.78849 1.2532L12.9202 9.38493L21.0519 1.2532C22.0282 0.276929 23.6112 0.276928 24.5875 1.2532C25.5637 2.22947 25.5637 3.81246 24.5875 4.78873L16.4557 12.9205L24.5875 21.0522C25.5637 22.0285 25.5637 23.6115 24.5875 24.5877C23.6112 25.564 22.0282 25.564 21.0519 24.5877L12.9202 16.456L4.78849 24.5877C3.81222 25.564 2.22922 25.564 1.25295 24.5877C0.276684 23.6115 0.276685 22.0285 1.25295 21.0522L9.38468 12.9205L1.25295 4.78873ZM1.96015 4.08163C1.37441 3.49588 1.37441 2.54605 1.96015 1.96031C2.5459 1.37456 3.49573 1.37456 4.08147 1.96031L12.9203 10.7991L21.7591 1.96031C22.3449 1.37456 23.2947 1.37456 23.8805 1.96031C24.4662 2.54605 24.4662 3.49588 23.8805 4.08163L15.0416 12.9205L23.8805 21.7593C24.4662 22.345 24.4662 23.2949 23.8805 23.8806C23.2947 24.4664 22.3449 24.4664 21.7591 23.8806L12.9203 15.0418L4.08147 23.8806C3.49573 24.4664 2.5459 24.4664 1.96015 23.8806C1.37441 23.2949 1.37441 22.345 1.96015 21.7593L10.799 12.9205L1.96015 4.08163Z" fill="black"/>
</svg>
