<?xml version="1.0" encoding="utf-8"?>
<!-- Generator: Adobe Illustrator 27.3.1, SVG Export Plug-In . SVG Version: 6.00 Build 0)  -->
<svg version="1.1" id="Layer_1" xmlns="http://www.w3.org/2000/svg" xmlns:xlink="http://www.w3.org/1999/xlink" x="0px" y="0px"
	 viewBox="0 0 20 150" style="enable-background:new 0 0 20 150;" xml:space="preserve">
<style type="text/css">
	.st0{fill:#A87400;}
	.st1{fill:#DBA705;}
</style>
<g>
	<g>
		<g>
			<g>
				<path class="st1" d="M4.69,23.08c-1.5-0.51-2.51-2.05-2.51-3.82v-5.82l4.53,1.54c1.5,0.51,2.51,2.05,2.51,3.82v5.82L4.69,23.08z
					"/>
			</g>
			<g>
				<path class="st0" d="M2.51,13.94l4.11,1.4C7.99,15.8,8.9,17.19,8.9,18.8v5.32l-4.11-1.4c-1.36-0.46-2.28-1.86-2.28-3.47V13.94
					 M1.86,12.93v6.32c0,1.93,1.12,3.63,2.74,4.18l4.96,1.69V18.8c0-1.93-1.12-3.63-2.74-4.18L1.86,12.93L1.86,12.93z"/>
			</g>
		</g>
		<g>
			<g>
				<g>
					<line class="st1" x1="3.46" y1="17.22" x2="6.51" y2="21.9"/>
				</g>
				<g>
					<path class="st0" d="M3.46,17.22c1.25,1.35,2.28,2.91,3.05,4.67C5.26,20.54,4.24,18.98,3.46,17.22L3.46,17.22z"/>
				</g>
			</g>
			<g>
				<g>
					<line class="st1" x1="4.73" y1="16.16" x2="7.78" y2="20.83"/>
				</g>
				<g>
					<path class="st0" d="M4.73,16.16c1.25,1.35,2.28,2.91,3.05,4.67C6.53,19.48,5.51,17.92,4.73,16.16L4.73,16.16z"/>
				</g>
			</g>
		</g>
	</g>
	<g>
		<g>
			<g>
				<path class="st1" d="M10.77,21.57c0-1.75,1.03-3.32,2.51-3.82l4.53-1.54v5.82c0,1.78-1.01,3.31-2.51,3.82l-4.53,1.54V21.57z"/>
			</g>
			<g>
				<path class="st0" d="M17.49,16.7v5.32c0,1.61-0.91,3-2.28,3.47l-4.11,1.4v-5.32c0-1.61,0.91-3,2.28-3.47L17.49,16.7 M18.14,15.7
					l-4.96,1.69c-1.63,0.55-2.74,2.25-2.74,4.18v6.32l4.96-1.69c1.63-0.55,2.74-2.25,2.74-4.18V15.7L18.14,15.7z"/>
			</g>
		</g>
		<g>
			<g>
				<g>
					<line class="st1" x1="16.54" y1="19.99" x2="13.49" y2="24.67"/>
				</g>
				<g>
					<path class="st0" d="M16.54,19.99c-0.78,1.76-1.79,3.32-3.05,4.67C14.26,22.91,15.28,21.35,16.54,19.99L16.54,19.99z"/>
				</g>
			</g>
			<g>
				<g>
					<line class="st1" x1="15.27" y1="18.93" x2="12.22" y2="23.6"/>
				</g>
				<g>
					<path class="st0" d="M15.27,18.93c-0.78,1.76-1.79,3.32-3.05,4.67C12.99,21.84,14.01,20.28,15.27,18.93L15.27,18.93z"/>
				</g>
			</g>
		</g>
	</g>
</g>
<g>
	<g>
		<g>
			<g>
				<path class="st1" d="M4.69,34.2c-1.5-0.51-2.51-2.05-2.51-3.82v-5.82l4.53,1.54c1.5,0.51,2.51,2.05,2.51,3.82v5.82L4.69,34.2z"
					/>
			</g>
			<g>
				<path class="st0" d="M2.51,25.06l4.11,1.4c1.36,0.46,2.28,1.86,2.28,3.47v5.32l-4.11-1.4c-1.36-0.46-2.28-1.86-2.28-3.47V25.06
					 M1.86,24.06v6.32c0,1.93,1.12,3.63,2.74,4.18l4.96,1.69v-6.32c0-1.93-1.12-3.63-2.74-4.18L1.86,24.06L1.86,24.06z"/>
			</g>
		</g>
		<g>
			<g>
				<g>
					<line class="st1" x1="3.46" y1="28.35" x2="6.51" y2="33.02"/>
				</g>
				<g>
					<path class="st0" d="M3.46,28.35c1.25,1.35,2.28,2.91,3.05,4.67C5.26,31.67,4.24,30.11,3.46,28.35L3.46,28.35z"/>
				</g>
			</g>
			<g>
				<g>
					<line class="st1" x1="4.73" y1="27.28" x2="7.78" y2="31.96"/>
				</g>
				<g>
					<path class="st0" d="M4.73,27.28c1.25,1.35,2.28,2.91,3.05,4.67C6.53,30.6,5.51,29.04,4.73,27.28L4.73,27.28z"/>
				</g>
			</g>
		</g>
	</g>
	<g>
		<g>
			<g>
				<path class="st1" d="M10.77,32.7c0-1.78,1.01-3.31,2.51-3.82l4.53-1.54v5.82c0,1.78-1.01,3.31-2.51,3.82l-4.53,1.54V32.7z"/>
			</g>
			<g>
				<path class="st0" d="M17.49,27.83v5.32c0,1.61-0.91,3-2.28,3.47l-4.11,1.4V32.7c0-1.61,0.91-3,2.28-3.47L17.49,27.83
					 M18.14,26.83l-4.96,1.69c-1.63,0.55-2.74,2.25-2.74,4.18v6.32l4.96-1.69c1.63-0.55,2.74-2.25,2.74-4.18V26.83L18.14,26.83z"/>
			</g>
		</g>
		<g>
			<g>
				<g>
					<line class="st1" x1="16.54" y1="31.12" x2="13.49" y2="35.79"/>
				</g>
				<g>
					<path class="st0" d="M16.54,31.12c-0.78,1.76-1.79,3.32-3.05,4.67C14.26,34.03,15.28,32.47,16.54,31.12L16.54,31.12z"/>
				</g>
			</g>
			<g>
				<g>
					<line class="st1" x1="15.27" y1="30.05" x2="12.22" y2="34.73"/>
				</g>
				<g>
					<path class="st0" d="M15.27,30.05c-0.78,1.76-1.79,3.32-3.05,4.67C12.99,32.97,14.01,31.41,15.27,30.05L15.27,30.05z"/>
				</g>
			</g>
		</g>
	</g>
</g>
<g>
	<g>
		<g>
			<g>
				<path class="st1" d="M4.69,45.33c-1.5-0.51-2.51-2.05-2.51-3.82v-5.82l4.53,1.54c1.5,0.51,2.51,2.05,2.51,3.82v5.82L4.69,45.33z
					"/>
			</g>
			<g>
				<path class="st0" d="M2.51,36.19l4.11,1.4c1.36,0.46,2.28,1.86,2.28,3.47v5.32l-4.11-1.4c-1.36-0.46-2.28-1.86-2.28-3.47V36.19
					 M1.86,35.18v6.32c0,1.93,1.12,3.63,2.74,4.18l4.96,1.69v-6.32c0-1.93-1.12-3.63-2.74-4.18L1.86,35.18L1.86,35.18z"/>
			</g>
		</g>
		<g>
			<g>
				<g>
					<line class="st1" x1="3.46" y1="39.47" x2="6.51" y2="44.15"/>
				</g>
				<g>
					<path class="st0" d="M3.46,39.47c1.25,1.35,2.28,2.91,3.05,4.67C5.26,42.79,4.24,41.23,3.46,39.47L3.46,39.47z"/>
				</g>
			</g>
			<g>
				<g>
					<line class="st1" x1="4.73" y1="38.41" x2="7.78" y2="43.08"/>
				</g>
				<g>
					<path class="st0" d="M4.73,38.41c1.25,1.35,2.28,2.91,3.05,4.67C6.53,41.73,5.51,40.17,4.73,38.41L4.73,38.41z"/>
				</g>
			</g>
		</g>
	</g>
	<g>
		<g>
			<g>
				<path class="st1" d="M10.77,43.82c0-1.75,1.03-3.32,2.51-3.82l4.53-1.54v5.82c0,1.78-1.01,3.31-2.51,3.82l-4.53,1.54V43.82z"/>
			</g>
			<g>
				<path class="st0" d="M17.49,38.95v5.32c0,1.61-0.91,3-2.28,3.47l-4.11,1.4v-5.32c0-1.61,0.91-3,2.28-3.47L17.49,38.95
					 M18.14,37.95l-4.96,1.69c-1.63,0.55-2.74,2.25-2.74,4.18v6.32l4.96-1.69c1.63-0.55,2.74-2.25,2.74-4.18V37.95L18.14,37.95z"/>
			</g>
		</g>
		<g>
			<g>
				<g>
					<line class="st1" x1="16.54" y1="42.24" x2="13.49" y2="46.92"/>
				</g>
				<g>
					<path class="st0" d="M16.54,42.24c-0.78,1.76-1.79,3.32-3.05,4.67C14.26,45.16,15.28,43.6,16.54,42.24L16.54,42.24z"/>
				</g>
			</g>
			<g>
				<g>
					<line class="st1" x1="15.27" y1="41.18" x2="12.22" y2="45.85"/>
				</g>
				<g>
					<path class="st0" d="M15.27,41.18c-0.78,1.76-1.79,3.32-3.05,4.67C12.99,44.09,14.01,42.53,15.27,41.18L15.27,41.18z"/>
				</g>
			</g>
		</g>
	</g>
</g>
<g>
	<g>
		<g>
			<g>
				<path class="st1" d="M4.69,56.45c-1.5-0.51-2.51-2.05-2.51-3.82v-5.82l4.53,1.54c1.5,0.51,2.51,2.05,2.51,3.82V58L4.69,56.45z"
					/>
			</g>
			<g>
				<path class="st0" d="M2.51,47.31l4.11,1.4c1.36,0.46,2.28,1.86,2.28,3.47v5.32l-4.11-1.4c-1.36-0.46-2.28-1.86-2.28-3.47V47.31
					 M1.86,46.31v6.32c0,1.93,1.12,3.63,2.74,4.18l4.96,1.69v-6.32c0-1.93-1.12-3.63-2.74-4.18L1.86,46.31L1.86,46.31z"/>
			</g>
		</g>
		<g>
			<g>
				<g>
					<line class="st1" x1="3.46" y1="50.6" x2="6.51" y2="55.27"/>
				</g>
				<g>
					<path class="st0" d="M3.46,50.6c1.25,1.35,2.28,2.91,3.05,4.67C5.26,53.92,4.24,52.36,3.46,50.6L3.46,50.6z"/>
				</g>
			</g>
			<g>
				<g>
					<line class="st1" x1="4.73" y1="49.53" x2="7.78" y2="54.21"/>
				</g>
				<g>
					<path class="st0" d="M4.73,49.53c1.25,1.35,2.28,2.91,3.05,4.67C6.53,52.85,5.51,51.29,4.73,49.53L4.73,49.53z"/>
				</g>
			</g>
		</g>
	</g>
	<g>
		<g>
			<g>
				<path class="st1" d="M10.77,54.95c0-1.78,1.01-3.31,2.51-3.82l4.53-1.54v5.82c0,1.78-1.01,3.31-2.51,3.82l-4.53,1.54V54.95z"/>
			</g>
			<g>
				<path class="st0" d="M17.49,50.08v5.32c0,1.61-0.91,3-2.28,3.47l-4.11,1.4v-5.32c0-1.61,0.91-3,2.28-3.47L17.49,50.08
					 M18.14,49.08l-4.96,1.69c-1.63,0.55-2.74,2.25-2.74,4.18v6.32l4.96-1.69c1.63-0.55,2.74-2.25,2.74-4.18V49.08L18.14,49.08z"/>
			</g>
		</g>
		<g>
			<g>
				<g>
					<line class="st1" x1="16.54" y1="53.37" x2="13.49" y2="58.04"/>
				</g>
				<g>
					<path class="st0" d="M16.54,53.37c-0.78,1.76-1.79,3.32-3.05,4.67C14.26,56.28,15.28,54.72,16.54,53.37L16.54,53.37z"/>
				</g>
			</g>
			<g>
				<g>
					<line class="st1" x1="15.27" y1="52.3" x2="12.22" y2="56.98"/>
				</g>
				<g>
					<path class="st0" d="M15.27,52.3c-0.78,1.76-1.79,3.32-3.05,4.67C12.99,55.22,14.01,53.66,15.27,52.3L15.27,52.3z"/>
				</g>
			</g>
		</g>
	</g>
</g>
<g>
	<g>
		<g>
			<g>
				<path class="st1" d="M4.69,67.58c-1.5-0.51-2.51-2.05-2.51-3.82v-5.82l4.53,1.54c1.5,0.51,2.51,2.05,2.51,3.82v5.82L4.69,67.58z
					"/>
			</g>
			<g>
				<path class="st0" d="M2.51,58.44l4.11,1.4C7.99,60.3,8.9,61.69,8.9,63.3v5.32l-4.11-1.4c-1.36-0.46-2.28-1.86-2.28-3.47V58.44
					 M1.86,57.43v6.32c0,1.93,1.12,3.63,2.74,4.18l4.96,1.69V63.3c0-1.93-1.12-3.63-2.74-4.18L1.86,57.43L1.86,57.43z"/>
			</g>
		</g>
		<g>
			<g>
				<g>
					<line class="st1" x1="3.46" y1="61.72" x2="6.51" y2="66.4"/>
				</g>
				<g>
					<path class="st0" d="M3.46,61.72c1.25,1.35,2.28,2.91,3.05,4.67C5.26,65.04,4.24,63.48,3.46,61.72L3.46,61.72z"/>
				</g>
			</g>
			<g>
				<g>
					<line class="st1" x1="4.73" y1="60.66" x2="7.78" y2="65.33"/>
				</g>
				<g>
					<path class="st0" d="M4.73,60.66c1.25,1.35,2.28,2.91,3.05,4.67C6.53,63.98,5.51,62.42,4.73,60.66L4.73,60.66z"/>
				</g>
			</g>
		</g>
	</g>
	<g>
		<g>
			<g>
				<path class="st1" d="M10.77,66.07c0-1.78,1.01-3.31,2.51-3.82l4.53-1.54v5.82c0,1.78-1.01,3.31-2.51,3.82l-4.53,1.54V66.07z"/>
			</g>
			<g>
				<path class="st0" d="M17.49,61.2v5.32c0,1.61-0.91,3-2.28,3.47l-4.11,1.4v-5.32c0-1.61,0.91-3,2.28-3.47L17.49,61.2 M18.14,60.2
					l-4.96,1.69c-1.63,0.55-2.74,2.25-2.74,4.18v6.32l4.96-1.69c1.63-0.55,2.74-2.25,2.74-4.18V60.2L18.14,60.2z"/>
			</g>
		</g>
		<g>
			<g>
				<g>
					<line class="st1" x1="16.54" y1="64.49" x2="13.49" y2="69.17"/>
				</g>
				<g>
					<path class="st0" d="M16.54,64.49c-0.78,1.76-1.79,3.32-3.05,4.67C14.26,67.41,15.28,65.85,16.54,64.49L16.54,64.49z"/>
				</g>
			</g>
			<g>
				<g>
					<line class="st1" x1="15.27" y1="63.43" x2="12.22" y2="68.1"/>
				</g>
				<g>
					<path class="st0" d="M15.27,63.43c-0.78,1.76-1.79,3.32-3.05,4.67C12.99,66.34,14.01,64.78,15.27,63.43L15.27,63.43z"/>
				</g>
			</g>
		</g>
	</g>
</g>
<path class="st0" d="M9.99,78.24l-3.18-0.95v69.52c0-1.76,1.43-3.19,3.19-3.19s3.19,1.43,3.19,3.19V79.92l-3.19,0.96V78.24z"/>
<path class="st0" d="M10,143.62c-1.76,0-3.19,1.43-3.19,3.19c0,1.76,1.43,3.19,3.19,3.19s3.19-1.43,3.19-3.19
	C13.19,145.05,11.76,143.62,10,143.62z"/>
<path class="st0" d="M12.18,73.52c-1.11,0.33-1.91,1.26-2.12,2.37v0.57h3.13v3.47l0.75-0.22c1.29-0.39,2.18-1.58,2.18-2.93v-4.43
	L12.18,73.52z"/>
<polygon class="st0" points="10.05,76.45 10.05,78.25 9.99,78.24 9.99,80.88 13.19,79.92 13.19,76.45 "/>
<path class="st0" d="M9.99,76.45c0-0.19,0.02-0.38,0.06-0.57v-2.06c0-1.35-0.89-2.54-2.18-2.93l-3.94-1.18v4.43
	c0,1.35,0.89,2.54,2.18,2.93l0.7,0.21v-0.83H9.99z"/>
<polygon class="st0" points="9.99,76.45 6.81,76.45 6.81,77.28 9.99,78.24 "/>
<path class="st0" d="M10.05,76.45v-0.57c-0.03,0.18-0.06,0.37-0.06,0.57H10.05z"/>
<polygon class="st0" points="9.99,78.24 10.05,78.25 10.05,76.45 9.99,76.45 "/>
<g>
	<path class="st1" d="M14,6.95l-3.68-6.27L6.64,6.95c-0.99,1.7-0.96,3.87,0,5.52l1.25,0.57c1.27,0.65,2.31,2.05,2.44,3.56v0
		c0,0.07,0.08,0.11,0.13,0.06l3-3.4C14.93,11.57,15.16,8.93,14,6.95z"/>
	<path class="st0" d="M10.52,17.09l-0.28-0.08c-0.15-0.07-0.25-0.24-0.25-0.42c-0.11-1.29-1.02-2.6-2.24-3.22l-1.33-0.61l-0.06-0.1
		c-1.05-1.81-1.05-4.13,0.01-5.93L10.32,0l3.95,6.74c1.25,2.13,0.99,4.98-0.6,6.78L10.52,17.09z M6.86,12.16L8,12.69
		c1.28,0.65,2.25,1.93,2.55,3.31l2.65-3c1.37-1.55,1.59-4.01,0.52-5.84l-3.4-5.81l-3.4,5.81C6.03,8.67,6.01,10.62,6.86,12.16z"/>
</g>
<g>
	<g>
		<g>
			<line class="st1" x1="9.53" y1="12.2" x2="9.53" y2="6.39"/>
		</g>
		<g>
			<path class="st0" d="M9.53,12.2c-0.3-1.93-0.3-3.88,0-5.81C9.83,8.32,9.83,10.27,9.53,12.2L9.53,12.2z"/>
		</g>
	</g>
	<g>
		<g>
			<line class="st1" x1="11.11" y1="12.2" x2="11.11" y2="6.39"/>
		</g>
		<g>
			<path class="st0" d="M11.11,12.2c-0.3-1.93-0.3-3.88,0-5.81C11.41,8.32,11.41,10.27,11.11,12.2L11.11,12.2z"/>
		</g>
	</g>
</g>
<g>
	<path class="st1" d="M11.25,143.88v-62.2l-2.49-1.78v63.99c0.38-0.16,0.8-0.25,1.25-0.25S10.86,143.72,11.25,143.88z"/>
</g>
<g>
	<path class="st1" d="M10,145.69c0.67,0,1.22,0.53,1.25,1.2v-3.01c-0.38-0.16-0.8-0.25-1.25-0.25s-0.86,0.09-1.25,0.25v3.01
		C8.78,146.22,9.33,145.69,10,145.69z"/>
</g>
<path class="st0" d="M11.26,146.94c0-0.02-0.01-0.04-0.01-0.06V147C11.25,146.98,11.26,146.96,11.26,146.94z"/>
<path class="st0" d="M8.74,146.94c0,0.02,0.01,0.04,0.01,0.06v-0.11C8.75,146.91,8.74,146.92,8.74,146.94z"/>
<g>
	<path class="st1" d="M10,148.2c0.67,0,1.22-0.53,1.25-1.2v-0.11c-0.03-0.67-0.57-1.2-1.25-1.2s-1.22,0.53-1.25,1.2V147
		C8.78,147.67,9.33,148.2,10,148.2z"/>
</g>
</svg>
