<?xml version="1.0" encoding="UTF-8"?>
<svg id="Layer_1" data-name="Layer 1" xmlns="http://www.w3.org/2000/svg" viewBox="0 0 20 100">
  <defs>
    <style>
      .cls-1 {
        fill: #a87400;
      }

      .cls-2 {
        fill: #dba705;
      }
    </style>
  </defs>
  <g>
    <rect class="cls-1" x="3.37" width="1" height="28.52"/>
    <rect class="cls-1" x="6.44" width="1" height="28.52"/>
    <rect class="cls-1" x="9.5" width="1" height="28.52"/>
    <rect class="cls-1" x="12.56" width="1" height="28.52"/>
    <rect class="cls-1" x="15.63" width="1" height="28.52"/>
  </g>
  <rect class="cls-1" x="5" y="28.72" width="10" height="62.54"/>
  <rect class="cls-1" x="7.44" y="27.39" width="5.13" height="72.61"/>
  <g>
    <path class="cls-2" d="m9,32.98c-.12,0-.24-.04-.35-.11l-6.01-4.03c-1.42-.95-2.27-2.54-2.27-4.26v-4.63c0-.57.48-.93.93-.93.18,0,.35.05.51.16l5.54,3.72c1.42.95,2.27,2.54,2.27,4.26v5.19c0,.39-.33.63-.63.63Z"/>
    <path class="cls-1" d="m1.3,19.41h0c.11,0,.21.03.3.1l5.54,3.72c1.32.88,2.1,2.36,2.1,3.94v5.19c0,.17-.15.25-.25.25-.05,0-.09-.01-.14-.04l-6.01-4.03c-1.32-.88-2.1-2.36-2.1-3.94v-4.63c0-.34.29-.55.55-.55m0-.75c-.68,0-1.3.54-1.3,1.3v4.63c0,1.83.91,3.55,2.44,4.57l6.01,4.03c.18.12.37.17.55.17.52,0,1-.41,1-1v-5.19c0-1.83-.91-3.55-2.44-4.57l-5.54-3.72c-.23-.15-.48-.22-.72-.22h0Z"/>
  </g>
  <g>
    <path class="cls-2" d="m11,32.98c-.3,0-.63-.24-.63-.63v-5.19c0-1.71.85-3.3,2.27-4.26l5.54-3.72c.16-.11.33-.16.51-.16.45,0,.93.35.93.93v4.63c0,1.71-.85,3.3-2.27,4.26l-6.01,4.03c-.11.07-.22.11-.35.11Z"/>
    <path class="cls-1" d="m18.7,19.41c.27,0,.55.21.55.55v4.63c0,1.59-.79,3.06-2.1,3.94l-6.01,4.03s-.09.04-.14.04c-.11,0-.25-.08-.25-.25v-5.19c0-1.59.79-3.06,2.1-3.94l5.54-3.72c.09-.06.2-.1.3-.1m0-.75c-.24,0-.49.07-.72.22l-5.54,3.72c-1.52,1.02-2.44,2.73-2.44,4.57v5.19c0,.59.48,1,1,1,.19,0,.38-.05.55-.17l6.01-4.03c1.52-1.02,2.44-2.73,2.44-4.57v-4.63c0-.76-.63-1.3-1.3-1.3h0Z"/>
  </g>
  <g>
    <path class="cls-2" d="m9,43.05c-.12,0-.24-.04-.35-.11l-6.01-4.03c-1.42-.95-2.27-2.54-2.27-4.26v-4.63c0-.57.48-.93.93-.93.18,0,.35.05.51.16l5.54,3.72c1.42.95,2.27,2.54,2.27,4.26v5.19c0,.39-.33.63-.63.63Z"/>
    <path class="cls-1" d="m1.3,29.47h0c.11,0,.21.03.3.1l5.54,3.72c1.32.88,2.1,2.36,2.1,3.94v5.19c0,.17-.15.25-.25.25-.05,0-.09-.01-.14-.04l-6.01-4.03c-1.32-.88-2.1-2.36-2.1-3.94v-4.63c0-.34.29-.55.55-.55m0-.75c-.68,0-1.3.54-1.3,1.3v4.63c0,1.83.91,3.55,2.44,4.57l6.01,4.03c.18.12.37.17.55.17.52,0,1-.41,1-1v-5.19c0-1.83-.91-3.55-2.44-4.57l-5.54-3.72c-.23-.15-.48-.22-.72-.22h0Z"/>
  </g>
  <g>
    <path class="cls-2" d="m11,43.05c-.3,0-.63-.24-.63-.63v-5.19c0-1.71.85-3.3,2.27-4.26l5.54-3.72c.16-.11.33-.16.51-.16.45,0,.93.35.93.93v4.63c0,1.71-.85,3.3-2.27,4.26l-6.01,4.03c-.11.07-.22.11-.35.11h0Z"/>
    <path class="cls-1" d="m18.7,29.47c.27,0,.55.21.55.55v4.63c0,1.59-.79,3.06-2.1,3.94l-6.01,4.03s-.09.04-.14.04c-.11,0-.25-.08-.25-.25v-5.19c0-1.59.79-3.06,2.1-3.94l5.54-3.72c.09-.06.2-.1.3-.1m0-.75c-.24,0-.49.07-.72.22l-5.54,3.72c-1.52,1.02-2.44,2.73-2.44,4.57v5.19c0,.59.48,1,1,1,.19,0,.38-.05.55-.17l6.01-4.03c1.52-1.02,2.44-2.73,2.44-4.57v-4.63c0-.76-.63-1.3-1.3-1.3h0Z"/>
  </g>
  <g>
    <path class="cls-2" d="m9,53.11c-.12,0-.24-.04-.35-.11l-6.01-4.03c-1.42-.95-2.27-2.54-2.27-4.26v-4.63c0-.57.48-.93.93-.93.18,0,.35.05.51.16l5.54,3.72c1.42.95,2.27,2.54,2.27,4.26v5.19c0,.39-.33.63-.63.63Z"/>
    <path class="cls-1" d="m1.3,39.54h0c.11,0,.21.03.3.1l5.54,3.72c1.32.88,2.1,2.36,2.1,3.94v5.19c0,.17-.15.25-.25.25-.05,0-.09-.01-.14-.04l-6.01-4.03c-1.32-.88-2.1-2.36-2.1-3.94v-4.63c0-.34.29-.55.55-.55m0-.75c-.68,0-1.3.54-1.3,1.3v4.63c0,1.83.91,3.55,2.44,4.57l6.01,4.03c.18.12.37.17.55.17.52,0,1-.41,1-1v-5.19c0-1.83-.91-3.55-2.44-4.57l-5.54-3.72c-.23-.15-.48-.22-.72-.22h0Z"/>
  </g>
  <g>
    <path class="cls-2" d="m11,53.11c-.3,0-.63-.24-.63-.63v-5.19c0-1.71.85-3.3,2.27-4.26l5.54-3.72c.16-.11.33-.16.51-.16.45,0,.93.35.93.93v4.63c0,1.71-.85,3.3-2.27,4.26l-6.01,4.03c-.11.07-.22.11-.35.11h0Z"/>
    <path class="cls-1" d="m18.7,39.54c.27,0,.55.21.55.55v4.63c0,1.59-.79,3.06-2.1,3.94l-6.01,4.03s-.09.04-.14.04c-.11,0-.25-.08-.25-.25v-5.19c0-1.59.79-3.06,2.1-3.94l5.54-3.72c.09-.06.2-.1.3-.1m0-.75c-.24,0-.49.07-.72.22l-5.54,3.72c-1.52,1.02-2.44,2.73-2.44,4.57v5.19c0,.59.48,1,1,1,.19,0,.38-.05.55-.17l6.01-4.03c1.52-1.02,2.44-2.73,2.44-4.57v-4.63c0-.76-.63-1.3-1.3-1.3h0Z"/>
  </g>
  <g>
    <path class="cls-2" d="m9,63.18c-.12,0-.24-.04-.35-.11l-6.01-4.03c-1.42-.95-2.27-2.54-2.27-4.26v-4.63c0-.57.48-.93.93-.93.18,0,.35.05.51.16l5.54,3.72c1.42.95,2.27,2.54,2.27,4.26v5.19c0,.39-.33.63-.63.63Z"/>
    <path class="cls-1" d="m1.3,49.6h0c.11,0,.21.03.3.1l5.54,3.72c1.32.88,2.1,2.36,2.1,3.94v5.19c0,.17-.15.25-.25.25-.05,0-.09-.01-.14-.04l-6.01-4.03c-1.32-.88-2.1-2.36-2.1-3.94v-4.63c0-.34.29-.55.55-.55m0-.75c-.68,0-1.3.54-1.3,1.3v4.63c0,1.83.91,3.55,2.44,4.57l6.01,4.03c.18.12.37.17.55.17.52,0,1-.41,1-1v-5.19c0-1.83-.91-3.55-2.44-4.57l-5.54-3.72c-.23-.15-.48-.22-.72-.22h0Z"/>
  </g>
  <g>
    <path class="cls-2" d="m11,63.18c-.3,0-.63-.24-.63-.63v-5.19c0-1.71.85-3.3,2.27-4.26l5.54-3.72c.16-.11.33-.16.51-.16.45,0,.93.35.93.93v4.63c0,1.71-.85,3.3-2.27,4.26l-6.01,4.03c-.11.07-.22.11-.35.11h0Z"/>
    <path class="cls-1" d="m18.7,49.6c.27,0,.55.21.55.55v4.63c0,1.59-.79,3.06-2.1,3.94l-6.01,4.03s-.09.04-.14.04c-.11,0-.25-.08-.25-.25v-5.19c0-1.59.79-3.06,2.1-3.94l5.54-3.72c.09-.06.2-.1.3-.1m0-.75c-.24,0-.49.07-.72.22l-5.54,3.72c-1.52,1.02-2.44,2.73-2.44,4.57v5.19c0,.59.48,1,1,1,.19,0,.38-.05.55-.17l6.01-4.03c1.52-1.02,2.44-2.73,2.44-4.57v-4.63c0-.76-.63-1.3-1.3-1.3h0Z"/>
  </g>
  <g>
    <path class="cls-2" d="m9,73.24c-.12,0-.24-.04-.35-.11l-6.01-4.03c-1.42-.95-2.27-2.54-2.27-4.26v-4.63c0-.57.48-.93.93-.93.18,0,.35.05.51.16l5.54,3.72c1.42.95,2.27,2.54,2.27,4.26v5.19c0,.39-.33.63-.63.63Z"/>
    <path class="cls-1" d="m1.3,59.67h0c.11,0,.21.03.3.1l5.54,3.72c1.32.88,2.1,2.36,2.1,3.94v5.19c0,.17-.15.25-.25.25-.05,0-.09-.01-.14-.04l-6.01-4.03c-1.32-.88-2.1-2.36-2.1-3.94v-4.63c0-.34.29-.55.55-.55m0-.75c-.68,0-1.3.54-1.3,1.3v4.63c0,1.83.91,3.55,2.44,4.57l6.01,4.03c.18.12.37.17.55.17.52,0,1-.41,1-1v-5.19c0-1.83-.91-3.55-2.44-4.57l-5.54-3.72c-.23-.15-.48-.22-.72-.22h0Z"/>
  </g>
  <g>
    <path class="cls-2" d="m11,73.24c-.3,0-.63-.24-.63-.63v-5.19c0-1.71.85-3.3,2.27-4.26l5.54-3.72c.16-.11.33-.16.51-.16.45,0,.93.35.93.93v4.63c0,1.71-.85,3.3-2.27,4.26l-6.01,4.03c-.11.07-.22.11-.35.11h0Z"/>
    <path class="cls-1" d="m18.7,59.67c.27,0,.55.21.55.55v4.63c0,1.59-.79,3.06-2.1,3.94l-6.01,4.03s-.09.04-.14.04c-.11,0-.25-.08-.25-.25v-5.19c0-1.59.79-3.06,2.1-3.94l5.54-3.72c.09-.06.2-.1.3-.1m0-.75c-.24,0-.49.07-.72.22l-5.54,3.72c-1.52,1.02-2.44,2.73-2.44,4.57v5.19c0,.59.48,1,1,1,.19,0,.38-.05.55-.17l6.01-4.03c1.52-1.02,2.44-2.73,2.44-4.57v-4.63c0-.76-.63-1.3-1.3-1.3h0Z"/>
  </g>
  <g>
    <path class="cls-2" d="m9,83.31c-.12,0-.24-.04-.35-.11l-6.01-4.03c-1.42-.95-2.27-2.54-2.27-4.26v-4.63c0-.57.48-.93.93-.93.18,0,.35.05.51.16l5.54,3.72c1.42.95,2.27,2.54,2.27,4.26v5.19c0,.39-.33.63-.63.63Z"/>
    <path class="cls-1" d="m1.3,69.73h0c.11,0,.21.03.3.1l5.54,3.72c1.32.88,2.1,2.36,2.1,3.94v5.19c0,.17-.15.25-.25.25-.05,0-.09-.01-.14-.04l-6.01-4.03c-1.32-.88-2.1-2.36-2.1-3.94v-4.63c0-.34.29-.55.55-.55m0-.75c-.68,0-1.3.54-1.3,1.3v4.63c0,1.83.91,3.55,2.44,4.57l6.01,4.03c.18.12.37.17.55.17.52,0,1-.41,1-1v-5.19c0-1.83-.91-3.55-2.44-4.57l-5.54-3.72c-.23-.15-.48-.22-.72-.22h0Z"/>
  </g>
  <g>
    <path class="cls-2" d="m11,83.31c-.3,0-.63-.24-.63-.63v-5.19c0-1.71.85-3.3,2.27-4.26l5.54-3.72c.16-.11.33-.16.51-.16.45,0,.93.35.93.93v4.63c0,1.71-.85,3.3-2.27,4.26l-6.01,4.03c-.11.07-.22.11-.35.11h0Z"/>
    <path class="cls-1" d="m18.7,69.73c.27,0,.55.21.55.55v4.63c0,1.59-.79,3.06-2.1,3.94l-6.01,4.03s-.09.04-.14.04c-.11,0-.25-.08-.25-.25v-5.19c0-1.59.79-3.06,2.1-3.94l5.54-3.72c.09-.06.2-.1.3-.1m0-.75c-.24,0-.49.07-.72.22l-5.54,3.72c-1.52,1.02-2.44,2.73-2.44,4.57v5.19c0,.59.48,1,1,1,.19,0,.38-.05.55-.17l6.01-4.03c1.52-1.02,2.44-2.73,2.44-4.57v-4.63c0-.76-.63-1.3-1.3-1.3h0Z"/>
  </g>
  <g>
    <path class="cls-2" d="m9,93.37c-.12,0-.24-.04-.35-.11l-6.01-4.03c-1.42-.95-2.27-2.54-2.27-4.26v-4.63c0-.57.48-.93.93-.93.18,0,.35.05.51.16l5.54,3.72c1.42.95,2.27,2.54,2.27,4.26v5.19c0,.39-.33.63-.63.63Z"/>
    <path class="cls-1" d="m1.3,79.8h0c.11,0,.21.03.3.1l5.54,3.72c1.32.88,2.1,2.36,2.1,3.94v5.19c0,.17-.15.25-.25.25-.05,0-.09-.01-.14-.04l-6.01-4.03c-1.32-.88-2.1-2.36-2.1-3.94v-4.63c0-.34.29-.55.55-.55m0-.75c-.68,0-1.3.54-1.3,1.3v4.63c0,1.83.91,3.55,2.44,4.57l6.01,4.03c.18.12.37.17.55.17.52,0,1-.41,1-1v-5.19c0-1.83-.91-3.55-2.44-4.57l-5.54-3.72c-.23-.15-.48-.22-.72-.22h0Z"/>
  </g>
  <g>
    <path class="cls-2" d="m11,93.37c-.3,0-.63-.24-.63-.63v-5.19c0-1.71.85-3.3,2.27-4.26l5.54-3.72c.16-.11.33-.16.51-.16.45,0,.93.35.93.93v4.63c0,1.71-.85,3.3-2.27,4.26l-6.01,4.03c-.11.07-.22.11-.35.11h0Z"/>
    <path class="cls-1" d="m18.7,79.8c.27,0,.55.21.55.55v4.63c0,1.59-.79,3.06-2.1,3.94l-6.01,4.03s-.09.04-.14.04c-.11,0-.25-.08-.25-.25v-5.19c0-1.59.79-3.06,2.1-3.94l5.54-3.72c.09-.06.2-.1.3-.1m0-.75c-.24,0-.49.07-.72.22l-5.54,3.72c-1.52,1.02-2.44,2.73-2.44,4.57v5.19c0,.59.48,1,1,1,.19,0,.38-.05.55-.17l6.01-4.03c1.52-1.02,2.44-2.73,2.44-4.57v-4.63c0-.76-.63-1.3-1.3-1.3h0Z"/>
  </g>
</svg>