<svg fill="currentColor" width="38" height="30" viewBox="0 0 38 30" xmlns="http://www.w3.org/2000/svg">
<g clip-path="url(#clip0_273_22)">
<path d="M8.15 11.96L5.14 11.99V6.10996H15.55C15.59 6.22996 15.62 6.35996 15.67 6.46996C15.73 6.60996 15.8 6.74996 15.87 6.86996C16.17 7.40996 16.64 7.96996 17.28 8.48996C18.9 9.81996 21.78 9.61996 21.78 9.61996C21.78 9.61996 22.02 7.26996 20.39 5.94996C20.26 5.83996 20.12 5.72996 19.98 5.63996C19.48 5.27996 18.96 5.00996 18.45 4.80996C18.96 4.61996 19.48 4.33996 19.98 3.98996C20.12 3.88996 20.26 3.78996 20.39 3.67996C22 2.34996 21.76 0.00995956 21.76 0.00995956C21.76 0.00995956 18.88 -0.19004 17.26 1.13996C16.53 1.73996 16 2.39996 15.72 3.00996C15.69 3.06996 15.67 3.12996 15.64 3.19996C15.6 3.29996 15.57 3.41996 15.54 3.52996H0V6.10996H2.17V25.16H0V27.74H8.28C9.9 27.74 11.13 27.35 11.98 26.57C12.83 25.79 13.26 24.66 13.26 23.2V16.23C13.26 14.64 12.81 13.88 11.94 13.06C11.1 12.27 9.8 11.94 8.15 11.96ZM10.19 23.19C10.19 23.85 9.97 24.35 9.54 24.67C9.11 24.99 8.49 25.16 7.69 25.16H5.11L5.14 14.54L7.85 14.51C8.62 14.49 9.2 14.64 9.6 14.94C9.69 15.01 10.2 15.23 10.2 16.62V23.18L10.19 23.19Z"/>
<path d="M30.8898 6.30002C31.4098 6.46002 32.0298 6.57002 32.6798 6.60002C32.8598 6.61002 33.0498 6.62002 33.2398 6.62002C35.5398 6.62002 37.3998 4.82002 37.3998 4.82002C37.3998 4.82002 35.5398 3.02002 33.2398 3.02002C32.1998 3.02002 31.2498 3.19002 30.5298 3.46002C30.4598 3.49002 30.3898 3.51002 30.3098 3.54002C29.5498 3.86002 29.0698 4.32002 29.0698 4.81002C29.0698 5.43002 29.7798 5.97002 30.8798 6.29002L30.8898 6.30002Z"/>
<path d="M22.8501 6.87996C23.1501 7.41996 23.6201 7.97996 24.2601 8.49996C25.8801 9.82996 28.7601 9.62996 28.7601 9.62996C28.7601 9.62996 29.0001 7.27996 27.3701 5.95996C27.2401 5.84996 27.1001 5.73996 26.9601 5.64996C26.4601 5.28996 25.9401 5.01996 25.4301 4.81996C25.9401 4.62996 26.4601 4.34996 26.9601 3.99996C27.1001 3.89996 27.2401 3.79996 27.3701 3.68996C28.9901 2.34996 28.7501 0.00995956 28.7501 0.00995956C28.7501 0.00995956 25.8701 -0.19004 24.2501 1.13996C23.5201 1.73996 22.9901 2.39996 22.7101 3.00996C22.6801 3.06996 22.6601 3.12996 22.6301 3.19996C22.4301 3.66996 22.3101 4.22996 22.3101 4.81996C22.3101 5.40996 22.4301 5.98996 22.6401 6.46996C22.7001 6.60996 22.7701 6.74996 22.8401 6.86996L22.8501 6.87996Z"/>
<path d="M16 15.44V24.64L23.97 29.24L31.94 24.64V15.44L23.97 10.84L16 15.44ZM29.04 22.97L23.96 25.9L18.89 22.97V17.11L23.96 14.18L29.04 17.11V22.97Z"/>
</g>
<defs>
<clipPath id="clip0_273_22">
<rect width="37.41" height="29.24"/>
</clipPath>
</defs>
</svg>
