<svg width="41" height="40" viewBox="0 0 41 40" fill="currentColor" xmlns="http://www.w3.org/2000/svg">
<g clip-path="url(#clip0_1_224)">
<path d="M0.126717 20C0.126717 16.9444 0.126717 14.1667 0.126717 11.1111C0.126717 8.61111 0.96005 6.38889 2.34894 4.44444C4.01561 2.5 5.96005 0.833333 8.46005 0.277778C9.29338 0 10.4045 0 11.2378 0C17.3489 0 23.1823 0 29.2934 0C31.7934 0 34.0156 0.833333 35.96 2.22222C38.1823 3.88889 39.5712 5.83333 40.1267 8.61111C40.4045 9.44444 40.4045 10.2778 40.4045 10.8333C40.4045 16.9444 40.4045 22.7778 40.4045 28.8889C40.4045 31.3889 39.5712 33.6111 38.1823 35.2778C37.0712 36.6667 35.6823 37.7778 34.0156 38.6111C32.9045 39.1667 32.0712 39.4444 30.9601 39.4444C30.4045 39.4444 29.8489 39.4444 29.2934 39.4444C23.46 39.4444 17.6267 39.4444 11.5156 39.4444C9.29338 39.4444 7.34894 38.8889 5.40449 37.5C3.18227 36.1111 1.79338 33.8889 0.96005 31.3889C0.682272 30.5556 0.404494 29.4444 0.404494 28.6111C0.126717 26.1111 0.126717 23.0556 0.126717 20ZM9.0156 20C9.0156 26.1111 14.0156 31.1111 19.8489 31.1111C25.96 31.1111 30.96 26.1111 31.2378 20C31.2378 13.8889 26.2378 8.88889 20.1267 8.88889C14.0156 8.88889 9.0156 13.8889 9.0156 20ZM31.2378 6.66667C31.2378 7.77778 32.3489 8.88889 33.46 8.88889C34.5712 8.88889 35.6823 7.77778 35.6823 6.66667C35.6823 5.55556 34.5712 4.44444 33.46 4.44444C32.3489 4.44444 31.2378 5.55556 31.2378 6.66667Z"/>
<path d="M20.1268 26.6666C16.5157 26.6666 13.4601 23.611 13.4601 19.9999C13.4601 16.3888 16.5157 13.3333 20.4046 13.3333C24.0157 13.3333 27.0712 16.3888 26.7935 20.2777C26.7935 23.611 23.7379 26.6666 20.1268 26.6666Z"/>
</g>
<defs>
<clipPath id="clip0_1_224">
<rect width="40.9756" height="40"/>
</clipPath>
</defs>
</svg>
