<svg width="699" height="149" viewBox="0 0 699 149" fill="none" xmlns="http://www.w3.org/2000/svg">
<g clip-path="url(#clip0_444_32)">
<path d="M33.6474 78.4818L21.2206 78.6056V54.3431H551.199C551.364 54.8382 551.488 55.3747 551.694 55.8286C551.942 56.4062 552.231 56.9839 552.52 57.4791C553.759 59.7073 555.699 62.018 558.341 64.1636C565.029 69.6516 576.92 68.8263 576.92 68.8263C576.92 68.8263 577.91 59.1296 571.181 53.6829C570.644 53.229 570.066 52.7751 569.488 52.4037C567.424 50.9183 565.277 49.8042 563.172 48.9789C565.277 48.1949 567.424 47.0396 569.488 45.5954C570.066 45.1828 570.644 44.7701 571.181 44.3162C577.91 38.8283 576.92 29.1728 576.92 29.1728C576.92 29.1728 565.029 28.3475 558.341 33.8355C555.327 36.3112 553.139 39.0346 551.983 41.5516C551.859 41.7992 551.777 42.0468 551.653 42.3356C551.488 42.7482 551.364 43.2434 551.24 43.6973H0V54.3431H8.95889V132.949H0V143.595H34.1842C40.8724 143.595 45.9504 141.985 49.4597 138.767C52.9689 135.548 54.7442 130.886 54.7442 124.861V96.1011C54.7442 89.5403 52.8864 86.4043 49.2945 83.0207C45.8266 79.761 40.4595 78.3993 33.6474 78.4818ZM42.0696 124.82C42.0696 127.543 41.1614 129.606 39.3861 130.927C37.6108 132.247 35.0511 132.949 31.7483 132.949H21.0967L21.2206 89.1276L32.4089 89.0039C35.5879 88.9213 37.9824 89.5403 39.6338 90.7782C40.0054 91.067 42.1109 91.9748 42.1109 97.7103V124.779L42.0696 124.82Z" fill="#272525"/>
<path d="M296.675 92.1811H302.786L302.662 106.953H276.074L276.198 92.1811H282.226V81.6591H269.51L269.551 81.5353H159.939C159.939 81.5353 159.815 81.5353 159.774 81.5353H132.236V92.1811H141.113V132.99H132.236V143.636H163.985V132.99H153.333V122.551H159.774C167.907 122.551 174.141 120.776 178.434 117.228C182.728 113.679 184.875 108.521 184.875 101.795C184.875 98.0817 184.132 94.9045 182.769 92.2224H212.412L212.288 133.031H203.329V143.677H233.592V133.031H224.633L224.757 92.2224H263.977L263.854 133.031H254.895V143.677H282.019V133.031H276.115V117.558H302.703V133.031H296.799V143.677H323.882V133.031H314.923L315.047 92.2224H323.924V81.5766H296.717V92.2224L296.675 92.1811ZM159.691 112.936H153.457V92.1811H159.691C167.989 92.1811 172.118 95.4822 172.118 102.084C172.118 109.305 167.989 112.936 159.691 112.936Z" fill="#272525"/>
<path d="M353.814 127.997L353.938 92.1811H359.842V81.6179L332.717 81.5353V92.1811H341.676V132.949H332.635V143.595H353.814L382.177 97.1327V132.949H376.273V143.595H403.274V132.949H394.315V92.1811H403.274V81.5353H382.177L353.814 127.997Z" fill="#272525"/>
<path d="M594.796 111.987C597.48 110.584 599.544 108.686 600.948 106.334C602.392 103.982 603.094 101.259 603.094 98.1642C603.094 92.8413 600.948 88.715 596.654 85.8266C592.36 82.9382 586.126 81.494 577.993 81.494H550.249V92.1398H559.208V132.949H535.056C538.731 128.492 540.919 123.004 540.919 117.021C540.919 102.332 526.552 81.5353 511.771 81.5353C496.991 81.5353 482.624 102.332 482.624 117.021C482.624 123.004 484.812 128.534 488.487 132.949H466.399L450.05 110.584L464.624 92.1398H474.45V81.494H447.036V92.1398H452.321L440.926 107.531H433.123V92.1398H439.151V81.494H412.026V92.1398H420.985V132.949H412.026V143.595H439.151V132.949H433.123V117.764H442.288L453.27 132.949H445.88V143.595H583.938C590.915 143.595 596.158 142.068 599.709 139.056C603.259 136.043 605.035 131.835 605.035 126.512C605.035 122.716 604.126 119.58 602.31 117.063C600.493 114.587 597.975 112.854 594.837 111.946L594.796 111.987ZM511.813 92.4699C519.12 92.4699 530.02 107.159 530.02 117.021C530.02 125.645 521.845 132.66 511.813 132.66C501.78 132.66 493.606 125.645 493.606 117.021C493.606 107.159 504.505 92.4699 511.813 92.4699ZM571.511 92.1811H579.232C586.663 92.1811 590.42 94.7806 590.42 99.9798C590.42 102.456 589.801 104.354 588.521 105.715C587.241 107.077 585.342 107.778 582.823 107.778H571.552V92.1811H571.511ZM589.759 130.968C587.984 132.289 585.424 132.99 582.08 132.99H571.552V117.269H582.741C585.92 117.269 588.314 117.929 589.966 119.208C591.617 120.487 592.443 122.427 592.443 124.944C592.443 127.626 591.576 129.606 589.801 130.968H589.759Z" fill="#272525"/>
<path d="M669.853 92.1811H675.963V132.949H669.935V143.595H696.936V132.949H687.977L688.101 92.1811H696.936V81.5353H669.853V92.1811Z" fill="#272525"/>
<path d="M655.939 106.252C652.719 104.89 648.797 104.189 644.214 104.189H632.613V92.0574H638.724V81.5353H611.847V92.0574H620.475V132.949H611.599V143.595H644.834C649.416 143.595 653.256 142.769 656.435 141.078C659.614 139.386 661.967 137.075 663.536 134.063C665.105 131.092 665.93 127.667 665.93 123.788C665.93 119.208 665.063 115.495 663.329 112.606C661.596 109.718 659.118 107.613 655.898 106.21L655.939 106.252ZM652.471 128.286C651.893 129.524 651.15 130.473 650.159 131.133C649.169 131.793 648.054 132.289 646.733 132.536C645.412 132.825 644.049 132.949 642.563 132.949H632.655V114.711H642.976C645.164 114.711 647.022 114.999 648.549 115.536C650.077 116.114 651.274 117.021 652.1 118.259C652.926 119.538 653.297 121.23 653.297 123.417C653.297 125.398 653.008 126.966 652.471 128.204V128.286Z" fill="#272525"/>
<path d="M38.2302 19.1047C38.2302 15.3497 35.4641 13.2866 31.6246 12.7502V12.6264C34.5558 11.9662 37.0329 9.94432 37.0329 6.72582C37.0742 1.03155 29.8906 0.247559 25.5144 0.247559C22.5005 0.247559 19.1564 0.536398 17.2573 0.825238V26.4082C18.661 26.532 21.7161 26.7383 24.6061 26.7383C29.6842 26.7383 38.2715 25.8718 38.2715 19.0634L38.2302 19.1047ZM21.7987 3.7549C22.8721 3.63111 23.8217 3.54858 25.4318 3.54858C30.1383 3.54858 32.409 4.78647 32.409 7.34476C32.409 10.4395 28.8172 11.471 25.3492 11.471H21.7987V3.7549ZM21.7574 14.5245H25.1841C29.6429 14.5245 33.4411 15.3497 33.4411 19.0634C33.4411 22.7771 28.7346 23.561 25.5144 23.561C24.0694 23.561 23.1198 23.5198 21.7574 23.396V14.5245Z" fill="#272525"/>
<path d="M49.9138 15.0197H50.822C55.157 15.0197 57.5515 16.959 59.3268 21.1266C60.1938 23.2722 61.0608 25.2941 61.7213 26.4082H66.6343C65.437 24.3038 64.6113 21.7868 63.9095 20.095C61.8865 15.4323 59.3681 12.6677 55.1983 12.1726L66.4691 0.536438H60.7305L51.0285 11.7599H49.9138V0.536438H45.2485V26.4495H49.9138V15.0609V15.0197Z" fill="#272525"/>
<path d="M78.8548 25.6242C78.8548 25.8718 78.6897 26.2844 78.4832 26.7383C77.3685 29.1316 75.7997 30.9471 74.5198 31.9787C73.1161 33.1753 71.5886 33.9181 70.3913 34.2894L71.5886 38.2094C72.7859 38.0031 75.0153 37.1778 77.3685 35.1972C80.5888 32.3501 82.9007 27.8524 86.2448 18.9809L93.3046 0.536438H88.3091L83.1485 15.7212C82.4879 17.578 81.9512 19.5586 81.497 21.1266H81.3732C80.9603 19.5586 80.2998 17.5367 79.6392 15.8449L74.0244 0.536438H68.8638L78.4007 24.3863C78.6484 24.964 78.7722 25.3354 78.7722 25.6242H78.8548Z" fill="#272525"/>
<path d="M109.2 27.0271C112.668 27.0271 115.392 26.1194 116.631 25.5417L115.805 21.9931C114.484 22.5708 112.709 23.231 110.025 23.231C104.865 23.231 101.025 19.5586 101.025 13.5342C101.025 8.17004 104.245 3.75492 110.19 3.75492C112.75 3.75492 114.525 4.41512 115.64 4.9928L116.714 1.40294C115.434 0.701468 112.957 0 110.19 0C101.727 0 96.2773 5.81806 96.2773 13.823C96.2773 21.828 101.355 27.0271 109.158 27.0271H109.2Z" fill="#272525"/>
<path d="M127.819 14.7308H140.081V26.4495H144.787V0.536438H140.081V10.9759H127.819V0.536438H123.112V26.4495H127.819V14.7308Z" fill="#272525"/>
<path d="M164.109 27.0271C170.301 27.0271 177.031 22.8596 177.031 13.2866C177.031 5.40543 171.994 0 164.563 0C157.132 0 151.723 5.07533 151.723 13.6993C151.723 22.3232 157.173 27.0271 164.15 27.0271H164.109ZM164.439 3.5486C170.013 3.5486 172.201 9.07782 172.201 13.4517C172.201 19.2697 168.815 23.5198 164.315 23.5198C159.815 23.5198 156.512 19.2285 156.512 13.5755C156.512 8.70645 158.907 3.58986 164.439 3.58986V3.5486Z" fill="#272525"/>
<path d="M201.018 4.20883H213.073V26.4495H217.779V0.536438H196.311V26.4495H201.018V4.20883Z" fill="#272525"/>
<path d="M237.06 27.0271C243.253 27.0271 249.982 22.8596 249.982 13.2866C249.982 5.40543 244.945 0 237.514 0C230.083 0 224.674 5.07533 224.674 13.6993C224.674 22.3232 230.124 27.0271 237.101 27.0271H237.06ZM237.39 3.5486C242.964 3.5486 245.152 9.07782 245.152 13.4517C245.152 19.2697 241.766 23.5198 237.266 23.5198C232.766 23.5198 229.463 19.2285 229.463 13.5755C229.463 8.70645 231.858 3.58986 237.39 3.58986V3.5486Z" fill="#272525"/>
<path d="M269.799 34.6195L270.046 26.4495H287.964L288.171 34.6195H291.886L292.134 22.9421H289.451V0.536438H272.152V7.26228C272.152 10.8934 271.657 14.4007 270.666 17.578C270.088 19.4348 269.221 21.2091 268.106 22.8596L265.918 22.9834L266.124 34.5783H269.757L269.799 34.6195ZM275.001 18.0319C275.909 15.1435 276.322 11.8424 276.322 8.33511V4.1263H284.909V22.8596H272.978C273.762 21.4154 274.464 19.8062 275.001 18.0319Z" fill="#272525"/>
<path d="M309.226 27.0271C315.419 27.0271 322.149 22.8596 322.149 13.2866C322.149 5.40543 317.112 0 309.681 0C302.249 0 296.841 5.07533 296.841 13.6993C296.841 22.3232 302.29 27.0271 309.268 27.0271H309.226ZM309.557 3.5486C315.13 3.5486 317.318 9.07782 317.318 13.4517C317.318 19.2697 313.933 23.5198 309.433 23.5198C304.933 23.5198 301.63 19.2285 301.63 13.5755C301.63 8.70645 304.024 3.58986 309.557 3.58986V3.5486Z" fill="#272525"/>
<path d="M332.511 14.1944C332.676 11.3473 332.8 7.92248 332.883 4.86903H333.089C333.75 7.26228 334.864 11.0172 335.731 13.4517L340.355 26.2844H343.741L348.736 13.2454C350.181 9.24289 350.924 7.17975 351.626 4.82777H351.791C351.915 8.00501 352.122 11.2648 352.204 14.0706L352.782 26.4495H357.282L355.466 0.536438H349.645L345.516 11.8424C344.443 14.6896 342.998 18.7333 342.42 20.714H342.296C341.718 18.6921 340.644 15.5148 339.942 13.5755L335.277 0.536438H329.497L327.516 26.4495H331.851L332.552 14.1944H332.511Z" fill="#272525"/>
<path d="M362.401 19.5998C362.401 23.3547 365.085 27.0271 370.328 27.0271C374.044 27.0271 376.81 25.2116 378.255 23.1897H378.42L378.792 26.4495H383.003C382.755 24.6752 382.631 22.4882 382.631 20.26V10.5633C382.631 5.40542 380.691 0.0412598 372.764 0.0412598C369.502 0.0412598 366.323 0.949042 364.177 2.26945L365.25 5.40542C367.067 4.16754 369.585 3.46607 372.062 3.46607C377.347 3.42481 377.966 7.30351 377.966 9.40792V9.94433C367.934 9.90307 362.401 13.3279 362.401 19.5586V19.5998ZM378.09 13.2454V17.743C378.09 18.1556 378.048 18.692 377.883 19.2285C377.14 21.4154 374.952 23.5611 371.525 23.5611C369.172 23.5611 367.149 22.1581 367.149 19.0634C367.149 14.0294 372.97 13.1216 378.131 13.2454H378.09Z" fill="#272525"/>
<path d="M423.132 0.536438H418.467V22.7358H409.467V0.536438H404.801V22.7358H395.801V0.536438H391.177V26.4495H423.132V0.536438Z" fill="#272525"/>
<path d="M436.467 14.7308H448.729V26.4495H453.435V0.536438H448.729V10.9759H436.467V0.536438H431.761V26.4495H436.467V14.7308Z" fill="#272525"/>
<path d="M473.128 27.0271C477.257 27.0271 480.147 26.1194 481.798 25.3766L480.931 21.9931C479.197 22.7358 477.133 23.3135 473.748 23.3135C469 23.3135 464.954 20.6727 464.871 14.3182H483.078C483.202 13.7818 483.243 13.0803 483.243 12.1313C483.243 7.38604 481.055 0 472.55 0C464.995 0 460.413 6.1069 460.413 13.9056C460.413 21.7042 465.16 27.0271 473.17 27.0271H473.128ZM472.179 3.38355C477.463 3.38355 478.743 8.04625 478.702 10.9759H464.954C465.326 7.71615 467.349 3.38355 472.179 3.38355Z" fill="#272525"/>
<path d="M493.523 14.1944C493.688 11.3473 493.812 7.92248 493.895 4.86903H494.101C494.762 7.26228 495.877 11.0172 496.744 13.4517L501.368 26.2844H504.753L509.748 13.2454C511.193 9.24289 511.937 7.17975 512.638 4.82777H512.804C512.927 8.00501 513.134 11.2648 513.216 14.0706L513.794 26.4495H518.294L516.478 0.536438H510.657L506.528 11.8424C505.455 14.6896 504.01 18.7333 503.432 20.714H503.308C502.73 18.6921 501.657 15.5148 500.955 13.5755L496.289 0.536438H490.51L488.528 26.4495H492.863L493.565 14.1944H493.523Z" fill="#272525"/>
<path d="M531.671 25.6242C531.671 25.8718 531.506 26.2844 531.3 26.7383C530.185 29.1316 528.616 30.9471 527.336 31.9787C525.933 33.1753 524.405 33.9181 523.208 34.2894L524.405 38.2094C525.602 38.0031 527.832 37.1778 530.185 35.1972C533.405 32.3501 535.717 27.8524 539.061 18.9809L546.121 0.536438H541.126L535.965 15.7212C535.304 17.578 534.768 19.5586 534.313 21.1266H534.19C533.777 19.5586 533.116 17.5367 532.456 15.8449L526.841 0.536438H521.68L531.217 24.3863C531.465 24.964 531.589 25.3354 531.589 25.6242H531.671Z" fill="#272525"/>
<path d="M672.082 55.1271C674.229 55.7873 676.789 56.2412 679.472 56.365C680.215 56.4062 681 56.4475 681.784 56.4475C691.28 56.4475 698.959 49.0202 698.959 49.0202C698.959 49.0202 691.28 41.5929 681.784 41.5929C677.491 41.5929 673.569 42.2944 670.596 43.4085C670.307 43.5322 670.018 43.6148 669.688 43.7386C666.55 45.059 664.568 46.9571 664.568 48.9789C664.568 51.5372 667.5 53.7654 672.041 55.0858L672.082 55.1271Z" fill="#272525"/>
<path d="M600.37 44.3575C607.099 38.8695 606.108 29.214 606.108 29.214C606.108 29.214 594.218 28.3888 587.53 33.8767C584.516 36.3525 582.328 39.0758 581.172 41.5929C581.048 41.8405 580.966 42.088 580.842 42.3769C580.016 44.3162 579.521 46.6269 579.521 49.0615C579.521 51.496 580.016 53.8892 580.883 55.8698C581.131 56.4475 581.42 57.0252 581.709 57.5203C582.947 59.7485 584.888 62.0592 587.53 64.2049C594.218 69.6929 606.108 68.8676 606.108 68.8676C606.108 68.8676 607.099 59.1708 600.37 53.7241C599.833 53.2703 599.255 52.8164 598.677 52.445C596.613 50.9595 594.466 49.8454 592.36 49.0202C594.466 48.2362 596.613 47.0808 598.677 45.6366C599.255 45.224 599.833 44.8114 600.37 44.3575Z" fill="#272525"/>
<path d="M616.76 64.2049C623.448 69.6929 635.338 68.8676 635.338 68.8676C635.338 68.8676 636.329 59.1708 629.6 53.7241C629.063 53.2703 628.485 52.8164 627.907 52.445C625.843 50.9595 623.696 49.8454 621.59 49.0202C623.696 48.2362 625.843 47.0808 627.907 45.6366C628.485 45.224 629.063 44.8114 629.6 44.3575C636.329 38.8695 635.338 29.214 635.338 29.214C635.338 29.214 623.448 28.3888 616.76 33.8767C613.746 36.3525 611.558 39.0758 610.402 41.5929C610.278 41.8405 610.196 42.088 610.072 42.3769C609.246 44.3162 608.75 46.6269 608.75 49.0615C608.75 51.496 609.246 53.8892 610.113 55.8698C610.361 56.4475 610.65 57.0252 610.939 57.5203C612.177 59.7485 614.118 62.0592 616.76 64.2049Z" fill="#272525"/>
<path d="M640.169 57.5203C641.407 59.7485 643.348 62.0592 645.99 64.2049C652.678 69.6929 664.568 68.8676 664.568 68.8676C664.568 68.8676 665.559 59.1708 658.83 53.7241C658.293 53.2703 657.715 52.8164 657.137 52.445C655.073 50.9595 652.926 49.8454 650.82 49.0202C652.926 48.2362 655.073 47.0808 657.137 45.6366C657.715 45.224 658.293 44.8114 658.83 44.3575C665.559 38.8695 664.568 29.214 664.568 29.214C664.568 29.214 652.678 28.3888 645.99 33.8767C642.976 36.3525 640.788 39.0758 639.632 41.5929C639.508 41.8405 639.425 42.088 639.302 42.3769C638.476 44.3162 637.98 46.6269 637.98 49.0615C637.98 51.496 638.476 53.8892 639.343 55.8698C639.591 56.4475 639.88 57.0252 640.169 57.5203Z" fill="#272525"/>
<path d="M64.4048 96.8438V131.587L94.5017 148.959L124.64 131.587V96.8438L94.5017 79.4722L64.4048 96.8438ZM113.699 125.274L94.5017 136.332L75.3454 125.274V103.157L94.5017 92.0986L113.699 103.157V125.274Z" fill="#272525"/>
<path d="M254 11.6437H266.46V14.8729H254V11.6437Z" fill="#272525"/>
</g>
<defs>
<clipPath id="clip0_444_32">
<rect width="699" height="149" fill="white"/>
</clipPath>
</defs>
</svg>
