<?xml version="1.0" encoding="UTF-8"?>
<svg id="Layer_1" data-name="Layer 1" xmlns="http://www.w3.org/2000/svg" viewBox="0 0 20 100">
  <defs>
    <style>
      .cls-1 {
        fill: #ef4065;
      }

      .cls-2 {
        fill: #005d22;
      }
    </style>
  </defs>
  <path class="cls-2" d="m8.63,20.25c.4.24.78.47,1.15.7.46.28.86.11.97-.42.05-.23.1-.46.16-.74.06.11.11.17.14.25.28.54.56,1.08.84,1.62.43.83,1.12,1.31,2.04,1.43.7.09,1.39.19,2.09.28.08.01.17.03.29.05-.17.11-.3.19-.43.27-.39.26-.41.69-.05.99.35.29.72.56,1.13.88-.44.1-.83.17-1.21.3-.36.13-.7.33-1.09.51-.14-.24-.33-.53-.48-.84-.18-.35-.44-.52-.83-.56-.64-.07-1.27-.17-1.9-.25-.22-.03-.35-.09-.33-.34,0-.1-.01-.2-.02-.31-.03-.29-.17-.52-.44-.66-.74-.4-1.49-.8-2.23-1.21-.09-.05-.17-.1-.3-.18.71-.44.36-1.15.48-1.78Z"/>
  <path class="cls-1" d="m10.63,26.03s.05-.08.07-.12c.29-.48.64-.75,1.26-.58.45.13.94.13,1.4.21.11.02.25.11.31.2.21.32.39.65.57.98.05.09.08.21.07.31-.15,1.05-1.01,2.06-2.1,2.22-1.08.16-1.93-.61-1.97-1.77-.02-.53.13-1.01.4-1.46Z"/>
  <path class="cls-1" d="m9.6,23.43c.26.16.52.3.77.47.09.07.17.2.2.31.05.22.06.45.08.68,0,.07-.04.15-.08.2-.45.48-.75,1.05-.89,1.7-.02.08-.1.18-.18.22-1.25.65-2.54-.08-2.63-1.48-.07-1,.56-2.11,1.46-2.55.1-.05.27-.05.37,0,.3.15.58.34.88.52l.04-.07Z"/>
  <path class="cls-1" d="m17.22,29.99c-.04.06-.1.15-.17.24-.8.96-2.07.86-2.7-.23-.08-.14-.15-.3-.2-.45-.12-.33-.17-.62.13-.92.35-.36.52-.84.62-1.34.15-.7.96-1.1,1.6-.77.76.39,1.06,1.07,1.11,1.88.04.56-.09,1.08-.4,1.6Z"/>
  <path class="cls-1" d="m10.13,29.04c.75.92,2,1.18,3.37.38.03.27.1.51.09.75-.08,1.64-2.06,2.88-3.56,2.23-.58-.25-.89-.71-.94-1.34-.06-.73.41-1.62,1.05-2.02Z"/>
  <path class="cls-1" d="m3.78,24.2c.48.97,1.27,1.36,2.36,1.31.02.33.05.66.07.98,0,.05-.04.12-.08.17-.32.4-.52.86-.64,1.36-.02.1-.09.2-.17.26-.66.49-1.39.42-1.98-.14-.98-.93-.94-2.74.05-3.65.11-.1.25-.18.39-.28Z"/>
  <path class="cls-1" d="m7.96,21.46c-.56.53-.59.7-.14,1.06-.16.13-.32.25-.47.38-.53.47-.87,1.06-1.03,1.75-.04.17-.11.23-.28.25-1.01.11-1.81-.59-1.82-1.62-.02-1.24,1.11-2.43,2.34-2.49.59-.03,1.12.23,1.39.67Z"/>
  <path class="cls-1" d="m3.12,28.88c.4.12.77.29,1.14.32.37.03.75-.09,1.17-.15,0-.02,0,.04,0,.09.08.67.34,1.26.84,1.73.05.05.09.15.08.22-.06.42-.23.79-.53,1.09-.56.58-1.36.58-2.05.02-.89-.73-1.21-2.23-.69-3.26.02-.03.04-.07.03-.05Z"/>
  <path class="cls-1" d="m6.71,26.95c.79.94,1.77,1.11,2.84.72.08.24.16.47.22.7.01.05-.03.15-.08.19-.65.53-1.08,1.18-1.22,2.02-.01.07-.11.15-.18.17-.76.26-1.59-.09-1.99-.85-.45-.85-.3-2.16.34-2.87.02-.02.05-.04.08-.07Z"/>
  <path class="cls-1" d="m8.93,32.35c.64.65,1.04.81,2.13.85.35.39.66.73.99,1.1-.17.32-.47.61-.83.83-.7.43-1.44.59-2.24.3-.78-.28-1.16-1-.95-1.8.14-.53.45-.94.9-1.28Z"/>
  <path class="cls-1" d="m14.12,30.77c.84.66,1.01.72,1.83.74.04.4-.07.77-.28,1.09-.6.91-1.45,1.36-2.55,1.28-.56-.04-1.02-.3-1.33-.82,1.14-.4,1.94-1.13,2.33-2.3Z"/>
  <path class="cls-1" d="m7.38,34.53c-.97.35-2.08-.27-2.32-1.3.49-.08.91-.29,1.25-.65.34-.36.53-.8.65-1.28.44.15.86.19,1.3.1.21-.04.24.15.3.27.03.06-.03.19-.09.24-.6.51-1.02,1.12-1.1,1.92-.02.22,0,.45.01.7Z"/>
  <path class="cls-2" d="m13.55,21.79c-.05.08-.09.17-.15.24-.04.05-.11.07-.16.11-.02-.07-.08-.14-.07-.2.07-.38.13-.76.24-1.13.19-.64.42-1.27.64-1.9.14-.39.41-.46.72-.19.23.19.28.52.1.74-.53.61-.89,1.32-1.19,2.06-.04.09-.09.18-.14.28,0,0,0,0,0,0Z"/>
  <path class="cls-2" d="m8.21,41.27c.51.31,1,.6,1.48.89.59.36,1.11.14,1.25-.54.06-.3.13-.59.2-.95.08.14.14.22.18.32.36.69.72,1.39,1.07,2.08.55,1.07,1.43,1.68,2.62,1.84.89.12,1.79.24,2.68.36.11.01.21.04.37.07-.21.14-.38.24-.55.35-.5.34-.53.89-.06,1.27.46.37.92.72,1.45,1.13-.56.13-1.07.21-1.55.38-.47.17-.9.42-1.4.66-.18-.31-.42-.68-.62-1.07-.23-.45-.57-.67-1.07-.73-.82-.08-1.63-.22-2.44-.32-.29-.03-.45-.12-.42-.43.01-.13-.01-.26-.03-.39-.04-.38-.22-.66-.56-.85-.96-.51-1.91-1.03-2.86-1.55-.11-.06-.22-.13-.38-.23.91-.57.47-1.48.62-2.29Z"/>
  <path class="cls-1" d="m10.77,48.68c.03-.05.06-.1.09-.16.37-.62.82-.96,1.61-.74.58.16,1.2.17,1.8.27.15.03.32.14.4.26.26.41.5.83.73,1.26.06.12.11.27.09.4-.2,1.35-1.29,2.64-2.7,2.85-1.39.21-2.48-.79-2.53-2.27-.02-.68.16-1.3.51-1.87Z"/>
  <path class="cls-1" d="m9.46,45.34c.33.2.67.38.98.61.12.09.22.25.25.4.06.28.08.58.1.87,0,.08-.05.19-.11.26-.58.62-.97,1.34-1.15,2.18-.02.11-.13.23-.23.28-1.6.83-3.25-.1-3.38-1.9-.09-1.29.72-2.71,1.88-3.27.13-.06.34-.07.47,0,.39.2.75.44,1.12.67l.05-.09Z"/>
  <path class="cls-1" d="m19.23,53.77c-.05.08-.13.2-.22.31-1.03,1.24-2.66,1.1-3.46-.3-.11-.18-.19-.38-.26-.58-.15-.42-.22-.79.16-1.19.45-.46.66-1.08.8-1.72.19-.9,1.23-1.41,2.06-.99.98.5,1.36,1.38,1.43,2.42.05.72-.11,1.39-.51,2.05Z"/>
  <path class="cls-1" d="m10.13,52.54c.96,1.18,2.57,1.52,4.32.48.04.34.12.66.11.96-.1,2.1-2.64,3.69-4.57,2.86-.74-.32-1.15-.91-1.21-1.72-.07-.94.52-2.07,1.35-2.59Z"/>
  <path class="cls-1" d="m1.98,46.34c.62,1.25,1.63,1.75,3.02,1.68.03.43.07.84.09,1.26,0,.07-.05.15-.1.21-.41.52-.66,1.11-.82,1.75-.03.12-.12.26-.22.34-.85.62-1.79.54-2.54-.19-1.25-1.2-1.21-3.52.07-4.69.14-.13.32-.23.5-.36Z"/>
  <path class="cls-1" d="m7.34,42.81c-.72.68-.75.9-.18,1.36-.2.16-.41.32-.6.49-.68.61-1.12,1.35-1.32,2.24-.05.22-.14.29-.36.32-1.3.14-2.32-.76-2.34-2.08-.02-1.59,1.42-3.12,3.01-3.19.75-.03,1.44.29,1.78.86Z"/>
  <path class="cls-1" d="m1.13,52.34c.51.15.98.37,1.47.41.48.04.97-.12,1.51-.2,0-.02,0,.05,0,.12.11.86.44,1.61,1.07,2.22.07.06.11.19.1.28-.08.53-.3,1.01-.68,1.4-.72.74-1.75.75-2.63.02-1.14-.94-1.55-2.87-.89-4.19.02-.04.05-.08.04-.07Z"/>
  <path class="cls-1" d="m5.75,49.87c1.01,1.21,2.27,1.42,3.64.92.1.3.2.6.28.9.02.07-.04.19-.1.24-.84.67-1.39,1.52-1.56,2.59-.01.09-.14.19-.24.22-.98.34-2.04-.12-2.56-1.1-.58-1.09-.39-2.77.43-3.69.03-.03.06-.05.1-.09Z"/>
  <path class="cls-1" d="m8.59,56.79c.82.84,1.34,1.03,2.73,1.09.45.5.84.93,1.27,1.41-.22.41-.61.78-1.07,1.06-.9.55-1.85.76-2.87.39-1-.36-1.49-1.29-1.22-2.31.18-.68.58-1.21,1.16-1.64Z"/>
  <path class="cls-1" d="m15.25,54.77c1.08.84,1.29.93,2.35.95.05.51-.09.99-.36,1.4-.77,1.17-1.86,1.75-3.27,1.64-.72-.05-1.31-.38-1.7-1.05,1.47-.52,2.5-1.45,2.99-2.95Z"/>
  <path class="cls-1" d="m6.6,59.59c-1.24.45-2.67-.35-2.98-1.67.62-.1,1.17-.37,1.6-.83.43-.46.68-1.02.84-1.64.56.2,1.11.24,1.67.12.27-.06.31.19.38.35.03.07-.04.24-.11.31-.78.65-1.31,1.44-1.41,2.46-.03.29,0,.58.01.9Z"/>
  <path class="cls-2" d="m14.52,43.23c-.06.1-.11.22-.19.31-.05.06-.14.09-.21.14-.03-.09-.1-.18-.08-.26.09-.49.17-.98.31-1.45.25-.82.54-1.63.82-2.44.17-.5.52-.59.93-.24.29.25.37.67.12.95-.68.79-1.14,1.69-1.53,2.64-.05.12-.12.24-.18.35,0,0,0,0,.01,0Z"/>
  <path class="cls-2" d="m8.63,66.14c.4.24.78.47,1.15.7.46.28.86.11.97-.42.05-.23.1-.46.16-.74.06.11.11.17.14.25.28.54.56,1.08.84,1.62.43.83,1.12,1.31,2.04,1.43.7.09,1.39.19,2.09.28.08.01.17.03.29.05-.17.11-.3.19-.43.27-.39.26-.41.69-.05.99.35.29.72.56,1.13.88-.44.1-.83.17-1.21.3-.36.13-.7.33-1.09.51-.14-.24-.33-.53-.48-.84-.18-.35-.44-.52-.83-.56-.64-.07-1.27-.17-1.9-.25-.22-.03-.35-.09-.33-.34,0-.1-.01-.2-.02-.31-.03-.29-.17-.52-.44-.66-.74-.4-1.49-.8-2.23-1.21-.09-.05-.17-.1-.3-.18.71-.44.36-1.15.48-1.78Z"/>
  <path class="cls-1" d="m10.63,71.91s.05-.08.07-.12c.29-.48.64-.75,1.26-.58.45.13.94.13,1.4.21.11.02.25.11.31.2.21.32.39.65.57.98.05.09.08.21.07.31-.15,1.05-1.01,2.06-2.1,2.22-1.08.16-1.93-.61-1.97-1.77-.02-.53.13-1.01.4-1.46Z"/>
  <path class="cls-1" d="m9.6,69.31c.26.16.52.3.77.47.09.07.17.2.2.31.05.22.06.45.08.68,0,.07-.04.15-.08.2-.45.48-.75,1.05-.89,1.7-.02.08-.1.18-.18.22-1.25.65-2.54-.08-2.63-1.48-.07-1,.56-2.11,1.46-2.55.1-.05.27-.05.37,0,.3.15.58.34.88.52l.04-.07Z"/>
  <path class="cls-1" d="m17.22,75.88c-.04.06-.1.15-.17.24-.8.96-2.07.86-2.7-.23-.08-.14-.15-.3-.2-.45-.12-.33-.17-.62.13-.92.35-.36.52-.84.62-1.34.15-.7.96-1.1,1.6-.77.76.39,1.06,1.07,1.11,1.88.04.56-.09,1.08-.4,1.6Z"/>
  <path class="cls-1" d="m10.13,74.92c.75.92,2,1.18,3.37.38.03.27.1.51.09.75-.08,1.64-2.06,2.88-3.56,2.23-.58-.25-.89-.71-.94-1.34-.06-.73.41-1.62,1.05-2.02Z"/>
  <path class="cls-1" d="m3.78,70.09c.48.97,1.27,1.36,2.36,1.31.02.33.05.66.07.98,0,.05-.04.12-.08.17-.32.4-.52.86-.64,1.36-.02.1-.09.2-.17.26-.66.49-1.39.42-1.98-.14-.98-.93-.94-2.74.05-3.65.11-.1.25-.18.39-.28Z"/>
  <path class="cls-1" d="m7.96,67.34c-.56.53-.59.7-.14,1.06-.16.13-.32.25-.47.38-.53.47-.87,1.06-1.03,1.75-.04.17-.11.23-.28.25-1.01.11-1.81-.59-1.82-1.62-.02-1.24,1.11-2.43,2.34-2.49.59-.03,1.12.23,1.39.67Z"/>
  <path class="cls-1" d="m3.12,74.77c.4.12.77.29,1.14.32.37.03.75-.09,1.17-.15,0-.02,0,.04,0,.09.08.67.34,1.26.84,1.73.05.05.09.15.08.22-.06.42-.23.79-.53,1.09-.56.58-1.36.58-2.05.02-.89-.73-1.21-2.23-.69-3.26.02-.03.04-.07.03-.05Z"/>
  <path class="cls-1" d="m6.71,72.84c.79.94,1.77,1.11,2.84.72.08.24.16.47.22.7.01.05-.03.15-.08.19-.65.53-1.08,1.18-1.22,2.02-.01.07-.11.15-.18.17-.76.26-1.59-.09-1.99-.85-.45-.85-.3-2.16.34-2.87.02-.02.05-.04.08-.07Z"/>
  <path class="cls-1" d="m8.93,78.23c.64.65,1.04.81,2.13.85.35.39.66.73.99,1.1-.17.32-.47.61-.83.83-.7.43-1.44.59-2.24.3-.78-.28-1.16-1-.95-1.8.14-.53.45-.94.9-1.28Z"/>
  <path class="cls-1" d="m14.12,76.66c.84.66,1.01.72,1.83.74.04.4-.07.77-.28,1.09-.6.91-1.45,1.36-2.55,1.28-.56-.04-1.02-.3-1.33-.82,1.14-.4,1.94-1.13,2.33-2.3Z"/>
  <path class="cls-1" d="m7.38,80.41c-.97.35-2.08-.27-2.32-1.3.49-.08.91-.29,1.25-.65.34-.36.53-.8.65-1.28.44.15.86.19,1.3.1.21-.04.24.15.3.27.03.06-.03.19-.09.24-.6.51-1.02,1.12-1.1,1.92-.02.22,0,.45.01.7Z"/>
  <path class="cls-2" d="m13.55,67.67c-.05.08-.09.17-.15.24-.04.05-.11.07-.16.11-.02-.07-.08-.14-.07-.2.07-.38.13-.76.24-1.13.19-.64.42-1.27.64-1.9.14-.39.41-.46.72-.19.23.19.28.52.1.74-.53.61-.89,1.32-1.19,2.06-.04.09-.09.18-.14.28,0,0,0,0,0,0Z"/>
</svg>