<svg width="25" height="25" viewBox="0 0 25 25" fill="none" xmlns="http://www.w3.org/2000/svg">
<path fill-rule="evenodd" clip-rule="evenodd" d="M15.4999 9.49996C15.4999 12.8137 12.8137 15.4999 9.49997 15.4999C6.18627 15.4999 3.49999 12.8137 3.49999 9.49996C3.49999 6.18627 6.18627 3.49999 9.49997 3.49999C12.8137 3.49999 15.4999 6.18627 15.4999 9.49996ZM14.5614 16.3293C13.1474 17.379 11.3962 17.9999 9.49997 17.9999C4.80556 17.9999 1 14.1944 1 9.49996C1 4.80556 4.80556 1 9.49997 1C14.1944 1 17.9999 4.80556 17.9999 9.49996C17.9999 11.3963 17.3789 13.1476 16.3292 14.5616L22.8837 21.1161C23.3719 21.6043 23.3719 22.3957 22.8837 22.8839C22.3955 23.372 21.6041 23.372 21.1159 22.8839L14.5614 16.3293Z" fill="#D9D9D9"/>
<path fill-rule="evenodd" clip-rule="evenodd" d="M9.5 14.5C12.2614 14.5 14.5 12.2614 14.5 9.5C14.5 6.73858 12.2614 4.5 9.5 4.5C6.73858 4.5 4.5 6.73858 4.5 9.5C4.5 12.2614 6.73858 14.5 9.5 14.5ZM14.4362 17.6183C12.9973 18.4949 11.3066 19 9.5 19C4.25329 19 0 14.7467 0 9.5C0 4.25329 4.25329 0 9.5 0C14.7467 0 19 4.25329 19 9.5C19 11.3067 18.4948 12.9975 17.6182 14.4364L23.5909 20.4091C24.4696 21.2878 24.4696 22.7124 23.5909 23.5911C22.7122 24.4698 21.2876 24.4698 20.4089 23.5911L14.4362 17.6183ZM14.5615 16.3294C13.1475 17.3791 11.3963 18 9.5 18C4.80558 18 1 14.1944 1 9.5C1 4.80558 4.80558 1 9.5 1C14.1944 1 18 4.80558 18 9.5C18 11.3964 17.379 13.1477 16.3292 14.5617L22.8838 21.1162C23.3719 21.6044 23.3719 22.3958 22.8838 22.884C22.3956 23.3721 21.6042 23.3721 21.116 22.884L14.5615 16.3294ZM9.5 15.5C12.8137 15.5 15.5 12.8137 15.5 9.5C15.5 6.18629 12.8137 3.5 9.5 3.5C6.18629 3.5 3.5 6.18629 3.5 9.5C3.5 12.8137 6.18629 15.5 9.5 15.5Z" fill="black"/>
</svg>
