<svg width="30" height="30" viewBox="0 0 30 30" fill="none" xmlns="http://www.w3.org/2000/svg">
<g clip-path="url(#clip0_1_39)">
<path fill-rule="evenodd" clip-rule="evenodd" d="M11.4204 23.7477C10.4419 23.7477 9.61354 24.5409 9.61354 25.5627C9.61354 26.5845 10.4419 27.3777 11.4204 27.3777C12.3988 27.3777 13.2272 26.5845 13.2272 25.5627C13.2272 24.5409 12.3988 23.7477 11.4204 23.7477ZM15.6135 25.5627C15.6135 27.8934 13.7167 29.7477 11.4204 29.7477C9.12397 29.7477 7.22717 27.8934 7.22717 25.5627C7.22717 23.232 9.12397 21.3777 11.4204 21.3777C13.7167 21.3777 15.6135 23.232 15.6135 25.5627Z"/>
<path fill-rule="evenodd" clip-rule="evenodd" d="M24.5454 23.7477C23.5669 23.7477 22.7385 24.5409 22.7385 25.5627C22.7385 26.5845 23.5669 27.3777 24.5454 27.3777C25.5238 27.3777 26.3522 26.5845 26.3522 25.5627C26.3522 24.5409 25.5238 23.7477 24.5454 23.7477ZM28.7385 25.5627C28.7385 27.8934 26.8417 29.7477 24.5454 29.7477C22.249 29.7477 20.3522 27.8934 20.3522 25.5627C20.3522 23.232 22.249 21.3777 24.5454 21.3777C26.8417 21.3777 28.7385 23.232 28.7385 25.5627Z"/>
<path fill-rule="evenodd" clip-rule="evenodd" d="M0.264709 1.76465C0.264709 0.936221 0.936282 0.264648 1.76471 0.264648H6.57754C7.29002 0.264648 7.90419 0.765831 8.04707 1.46383L9.0057 6.14686H28.2353C28.6834 6.14686 29.1081 6.34722 29.393 6.69311C29.678 7.03899 29.7933 7.49416 29.7076 7.93401L27.7802 17.8158C27.5984 18.7107 27.1019 19.5073 26.3866 20.0703C25.6761 20.6295 24.7934 20.9246 23.8914 20.9113H12.221C11.3189 20.9246 10.4362 20.6295 9.72573 20.0703C9.01078 19.5076 8.5144 18.7114 8.33241 17.817C8.33233 17.8166 8.33225 17.8162 8.33217 17.8158L6.32428 8.00705C6.31488 7.96891 6.30693 7.93019 6.30051 7.89096L5.35349 3.26465H1.76471C0.936282 3.26465 0.264709 2.59308 0.264709 1.76465ZM9.61981 9.14686L11.2721 17.2186C11.3104 17.407 11.4166 17.5834 11.5812 17.713C11.7465 17.8431 11.9586 17.9157 12.1805 17.9115L12.2086 17.9113H23.9037L23.9318 17.9115C24.1537 17.9157 24.3658 17.8431 24.5311 17.713C24.6945 17.5844 24.8003 17.4096 24.8393 17.2228L26.4145 9.14686H9.61981Z"/>
</g>
<defs>
<clipPath id="clip0_1_39">
<rect width="30" height="30" fill="#303030"/>
</clipPath>
</defs>
</svg>
