<?xml version="1.0" encoding="UTF-8"?>
<svg id="Layer_1" data-name="Layer 1" xmlns="http://www.w3.org/2000/svg" viewBox="0 0 20 100">
  <defs>
    <style>
      .cls-1 {
        fill: #c51f30;
      }

      .cls-2 {
        fill: #c4c150;
      }

      .cls-3 {
        fill: #005d22;
      }
    </style>
  </defs>
  <g>
    <g>
      <path class="cls-1" d="m4.14,31.97c1.7,1.89,3.79,1.42,4.39,1.36,4.21-.36,9.16-6.62,8.52-7.99-1.73-3.69-4.28-6.17-6.58-6.72-1.15-.28-4.03-1.26-5.63.72-2.48,3.07-3.42,9.61-.7,12.62Z"/>
      <ellipse class="cls-3" cx="12.14" cy="19.27" rx="2.19" ry="4.02" transform="translate(-10.28 23.27) rotate(-67.91)"/>
      <path class="cls-3" d="m10.94,17.32c-1.26-1.45-4.6.04-4.93.19-.72.32-1.64.73-1.61,1.21.05.77,2.52,1.19,4.09,1.23,1.15.03,2.28.06,2.72-.66.35-.56.19-1.45-.27-1.97Z"/>
      <path class="cls-3" d="m14.83,19.38c1.9.26,2.48,3.88,2.53,4.23.12.78.28,1.78-.14,2.01-.67.38-2.37-1.46-3.26-2.75-.65-.94-1.29-1.87-.93-2.64.28-.6,1.11-.95,1.8-.86Z"/>
      <path class="cls-3" d="m8.56,18.38c-.88.86-.03,3.93.73,4.24.76.31,5.01.15,5.41-1.91.31-1.54-4.72-3.72-6.15-2.33Z"/>
      <path class="cls-2" d="m5.19,21.59c-.45.58-.51,1.29-.51,1.29,0,0,.67-.23,1.12-.81s.51-1.29.51-1.29c0,0-.67.23-1.12.81Z"/>
      <path class="cls-2" d="m4.13,25.43c-.45.58-.51,1.29-.51,1.29,0,0,.67-.23,1.12-.81s.51-1.29.51-1.29c0,0-.67.23-1.12.81Z"/>
      <path class="cls-2" d="m7.09,23.07c-.45.58-.51,1.29-.51,1.29,0,0,.67-.23,1.12-.81s.51-1.29.51-1.29c0,0-.67.23-1.12.81Z"/>
      <path class="cls-2" d="m13.44,27.83c-.45.58-.51,1.29-.51,1.29,0,0,.67-.23,1.12-.81s.51-1.29.51-1.29c0,0-.67.23-1.12.81Z"/>
      <path class="cls-2" d="m12.99,25.27c-.45.58-.51,1.29-.51,1.29,0,0,.67-.23,1.12-.81s.51-1.29.51-1.29c0,0-.67.23-1.12.81Z"/>
      <path class="cls-2" d="m8.23,25.66c-.45.58-.51,1.29-.51,1.29,0,0,.67-.23,1.12-.81s.51-1.29.51-1.29c0,0-.67.23-1.12.81Z"/>
      <path class="cls-2" d="m9.49,30.43c-.45.58-.51,1.29-.51,1.29,0,0,.67-.23,1.12-.81s.51-1.29.51-1.29c0,0-.67.23-1.12.81Z"/>
      <path class="cls-2" d="m6.82,29.74c-.45.58-.51,1.29-.51,1.29,0,0,.67-.23,1.12-.81s.51-1.29.51-1.29c0,0-.67.23-1.12.81Z"/>
      <path class="cls-2" d="m5.21,27.7c-.45.58-.51,1.29-.51,1.29,0,0,.67-.23,1.12-.81s.51-1.29.51-1.29c0,0-.67.23-1.12.81Z"/>
      <path class="cls-2" d="m10.22,27.4c-.45.58-.51,1.29-.51,1.29,0,0,.67-.23,1.12-.81s.51-1.29.51-1.29c0,0-.67.23-1.12.81Z"/>
      <path class="cls-2" d="m11.01,24.22c-.45.58-.51,1.29-.51,1.29,0,0,.67-.23,1.12-.81s.51-1.29.51-1.29c0,0-.67.23-1.12.81Z"/>
    </g>
    <path class="cls-3" d="m12.16,21.05c-.04-.57-.15-3.49,2.06-5.33.68-.56,1.47-.95,2.37-1.15l.34,1.5c-.66.15-1.24.43-1.72.83-1.63,1.35-1.54,3.59-1.51,4.02l-1.54.12Z"/>
  </g>
  <g>
    <g>
      <path class="cls-1" d="m2.38,58.9c2.22,2.46,4.93,1.84,5.72,1.77,5.48-.46,11.92-8.62,11.09-10.39-2.25-4.81-5.57-8.02-8.57-8.74-1.5-.36-5.25-1.64-7.33.94-3.23,4-4.44,12.5-.91,16.42Z"/>
      <ellipse class="cls-3" cx="12.78" cy="42.37" rx="2.85" ry="5.23" transform="translate(-31.29 38.28) rotate(-67.91)"/>
      <path class="cls-3" d="m11.22,39.83c-1.64-1.89-5.99.05-6.41.24-.94.42-2.14.95-2.1,1.58.06,1,3.28,1.55,5.32,1.6,1.49.04,2.96.08,3.54-.85.45-.73.25-1.88-.35-2.57Z"/>
      <path class="cls-3" d="m16.29,42.51c2.47.34,3.22,5.05,3.3,5.51.16,1.01.37,2.31-.18,2.62-.88.49-3.09-1.91-4.25-3.58-.85-1.23-1.68-2.44-1.22-3.43.37-.78,1.44-1.24,2.34-1.11Z"/>
      <path class="cls-3" d="m8.13,41.22c-1.15,1.12-.04,5.12.95,5.52.99.4,6.52.19,7.05-2.48.4-2-6.15-4.84-8-3.04Z"/>
      <path class="cls-2" d="m3.74,45.39c-.59.75-.66,1.67-.66,1.67,0,0,.88-.3,1.46-1.05s.66-1.67.66-1.67c0,0-.88.3-1.46,1.05Z"/>
      <path class="cls-2" d="m2.36,50.39c-.59.75-.66,1.67-.66,1.67,0,0,.88-.3,1.46-1.05s.66-1.67.66-1.67c0,0-.88.3-1.46,1.05Z"/>
      <path class="cls-2" d="m6.21,47.32c-.59.75-.66,1.67-.66,1.67,0,0,.88-.3,1.46-1.05s.66-1.67.66-1.67c0,0-.88.3-1.46,1.05Z"/>
      <path class="cls-2" d="m14.48,53.51c-.59.75-.66,1.67-.66,1.67,0,0,.88-.3,1.46-1.05s.66-1.67.66-1.67c0,0-.88.3-1.46,1.05Z"/>
      <path class="cls-2" d="m13.89,50.18c-.59.75-.66,1.67-.66,1.67,0,0,.88-.3,1.46-1.05s.66-1.67.66-1.67c0,0-.88.3-1.46,1.05Z"/>
      <path class="cls-2" d="m7.7,50.68c-.59.75-.66,1.67-.66,1.67,0,0,.88-.3,1.46-1.05s.66-1.67.66-1.67c0,0-.88.3-1.46,1.05Z"/>
      <path class="cls-2" d="m9.33,56.9c-.59.75-.66,1.67-.66,1.67,0,0,.88-.3,1.46-1.05s.66-1.67.66-1.67c0,0-.88.3-1.46,1.05Z"/>
      <path class="cls-2" d="m5.86,55.99c-.59.75-.66,1.67-.66,1.67,0,0,.88-.3,1.46-1.05s.66-1.67.66-1.67c0,0-.88.3-1.46,1.05Z"/>
      <path class="cls-2" d="m3.76,53.34c-.59.75-.66,1.67-.66,1.67,0,0,.88-.3,1.46-1.05s.66-1.67.66-1.67c0,0-.88.3-1.46,1.05Z"/>
      <path class="cls-2" d="m10.28,52.95c-.59.75-.66,1.67-.66,1.67,0,0,.88-.3,1.46-1.05s.66-1.67.66-1.67c0,0-.88.3-1.46,1.05Z"/>
      <path class="cls-2" d="m11.32,48.81c-.59.75-.66,1.67-.66,1.67,0,0,.88-.3,1.46-1.05s.66-1.67.66-1.67c0,0-.88.3-1.46,1.05Z"/>
    </g>
    <path class="cls-3" d="m12.82,44.69c-.06-.74-.2-4.54,2.68-6.93.88-.73,1.92-1.23,3.09-1.49l.44,1.96c-.86.19-1.61.55-2.24,1.08-2.12,1.76-2,4.67-1.96,5.23l-2,.15Z"/>
  </g>
  <g>
    <g>
      <path class="cls-1" d="m4.14,81.03c1.7,1.89,3.79,1.42,4.39,1.36,4.21-.36,9.16-6.62,8.52-7.99-1.73-3.69-4.28-6.17-6.58-6.72-1.15-.28-4.03-1.26-5.63.72-2.48,3.07-3.42,9.61-.7,12.62Z"/>
      <ellipse class="cls-3" cx="12.14" cy="68.32" rx="2.19" ry="4.02" transform="translate(-55.74 53.87) rotate(-67.91)"/>
      <path class="cls-3" d="m10.94,66.37c-1.26-1.45-4.6.04-4.93.19-.72.32-1.64.73-1.61,1.21.05.77,2.52,1.19,4.09,1.23,1.15.03,2.28.06,2.72-.66.35-.56.19-1.45-.27-1.97Z"/>
      <path class="cls-3" d="m14.83,68.43c1.9.26,2.48,3.88,2.53,4.23.12.78.28,1.78-.14,2.01-.67.38-2.37-1.46-3.26-2.75-.65-.94-1.29-1.87-.93-2.64.28-.6,1.11-.95,1.8-.86Z"/>
      <path class="cls-3" d="m8.56,67.44c-.88.86-.03,3.93.73,4.24.76.31,5.01.15,5.41-1.91.31-1.54-4.72-3.72-6.15-2.33Z"/>
      <path class="cls-2" d="m5.19,70.65c-.45.58-.51,1.29-.51,1.29,0,0,.67-.23,1.12-.81s.51-1.29.51-1.29c0,0-.67.23-1.12.81Z"/>
      <path class="cls-2" d="m4.13,74.49c-.45.58-.51,1.29-.51,1.29,0,0,.67-.23,1.12-.81s.51-1.29.51-1.29c0,0-.67.23-1.12.81Z"/>
      <path class="cls-2" d="m7.09,72.13c-.45.58-.51,1.29-.51,1.29,0,0,.67-.23,1.12-.81s.51-1.29.51-1.29c0,0-.67.23-1.12.81Z"/>
      <path class="cls-2" d="m13.44,76.89c-.45.58-.51,1.29-.51,1.29,0,0,.67-.23,1.12-.81s.51-1.29.51-1.29c0,0-.67.23-1.12.81Z"/>
      <path class="cls-2" d="m12.99,74.33c-.45.58-.51,1.29-.51,1.29,0,0,.67-.23,1.12-.81s.51-1.29.51-1.29c0,0-.67.23-1.12.81Z"/>
      <path class="cls-2" d="m8.23,74.71c-.45.58-.51,1.29-.51,1.29,0,0,.67-.23,1.12-.81s.51-1.29.51-1.29c0,0-.67.23-1.12.81Z"/>
      <path class="cls-2" d="m9.49,79.49c-.45.58-.51,1.29-.51,1.29,0,0,.67-.23,1.12-.81s.51-1.29.51-1.29c0,0-.67.23-1.12.81Z"/>
      <path class="cls-2" d="m6.82,78.79c-.45.58-.51,1.29-.51,1.29,0,0,.67-.23,1.12-.81s.51-1.29.51-1.29c0,0-.67.23-1.12.81Z"/>
      <path class="cls-2" d="m5.21,76.76c-.45.58-.51,1.29-.51,1.29,0,0,.67-.23,1.12-.81s.51-1.29.51-1.29c0,0-.67.23-1.12.81Z"/>
      <path class="cls-2" d="m10.22,76.46c-.45.58-.51,1.29-.51,1.29,0,0,.67-.23,1.12-.81s.51-1.29.51-1.29c0,0-.67.23-1.12.81Z"/>
      <path class="cls-2" d="m11.01,73.27c-.45.58-.51,1.29-.51,1.29,0,0,.67-.23,1.12-.81s.51-1.29.51-1.29c0,0-.67.23-1.12.81Z"/>
    </g>
    <path class="cls-3" d="m12.16,70.11c-.04-.57-.15-3.49,2.06-5.33.68-.56,1.47-.95,2.37-1.15l.34,1.5c-.66.15-1.24.43-1.72.83-1.63,1.35-1.54,3.59-1.51,4.02l-1.54.12Z"/>
  </g>
</svg>