<svg width="40" height="40" viewBox="0 0 40 40" fill="currentColor" xmlns="http://www.w3.org/2000/svg">
<path d="M28.7466 0H11.2534C5.03364 0 0 5.03364 0 11.2534V28.7565C0 34.9664 5.03364 40.01 11.2534 40.01H28.7565C34.9664 40.01 40.01 34.9763 40.01 28.7565V11.2534C40 5.03364 34.9664 0 28.7466 0ZM33.3416 16.4166C32.5841 21.0915 31.7867 25.7463 30.9793 30.4112C30.8697 31.0292 30.7002 31.6472 30.451 32.2253C29.9626 33.3715 29.1752 33.7403 27.989 33.3516C27.3611 33.1423 26.763 32.8233 26.2048 32.4545C23.6432 30.7501 21.1014 29.0257 18.5597 27.2913C18.2308 27.072 17.9018 26.8328 17.6128 26.5637C16.8353 25.836 16.7755 25.1881 17.4732 24.3907C18.0513 23.7229 18.6992 23.1149 19.3372 22.4969C21.5101 20.4236 23.693 18.3603 25.8659 16.2771C26.1151 16.0379 26.3643 15.7887 26.5437 15.5096C26.6434 15.3601 26.6833 15.0611 26.6035 14.9315C26.5238 14.8019 26.2347 14.7521 26.0454 14.772C25.8659 14.7919 25.6865 14.9215 25.5171 15.0311C21.7792 17.5031 18.0414 19.9851 14.3035 22.467C13.5161 22.9953 12.6987 23.5036 11.7418 23.5535C11.084 23.5834 10.3962 23.5335 9.75829 23.374C8.24321 22.9753 6.7381 22.4869 5.23299 22.0284C4.99377 21.9586 4.75455 21.849 4.53526 21.7294C3.72788 21.2808 3.66808 20.6329 4.40568 20.0648C4.70471 19.8355 5.03364 19.6362 5.38251 19.4867C13.2868 16.1376 21.1911 12.7884 29.1154 9.45926C30.0424 9.07052 31.0192 8.77149 32.006 8.55221C33.4114 8.23324 34.159 8.8911 34.1191 10.6952C33.8899 12.3798 33.6606 14.4032 33.3416 16.4166Z"/>
</svg>