<svg width="25" height="25" viewBox="0 0 25 25" fill="none" xmlns="http://www.w3.org/2000/svg">
<g clip-path="url(#clip0_421_5)">
<path d="M24.64 22.14L18.44 15.94C19.59 14.29 20.27 12.29 20.27 10.13C20.27 4.55 15.72 0 10.14 0C4.56 0 0 4.55 0 10.14C0 15.73 4.55 20.28 10.14 20.28C12.67 20.28 14.99 19.35 16.77 17.8L22.87 23.9C23.11 24.14 23.43 24.26 23.75 24.26C24.07 24.26 24.39 24.14 24.63 23.9C25.12 23.41 25.12 22.62 24.63 22.14H24.64ZM2.49 10.14C2.49 5.92 5.92 2.5 10.13 2.5C14.34 2.5 17.77 5.93 17.77 10.14C17.77 14.35 14.34 17.78 10.13 17.78C5.92 17.78 2.49 14.35 2.49 10.14Z" fill="white"/>
</g>
<defs>
<clipPath id="clip0_421_5">
<rect width="25" height="24.26" fill="white"/>
</clipPath>
</defs>
</svg>
