<?xml version="1.0" encoding="UTF-8"?>
<svg id="Layer_1" data-name="Layer 1" xmlns="http://www.w3.org/2000/svg" viewBox="0 0 20 100">
  <defs>
    <style>
      .cls-1 {
        fill: #ed1652;
      }

      .cls-2 {
        fill: #005d22;
      }
    </style>
  </defs>
  <g>
    <path class="cls-1" d="m9.69,40.84c-.75,0-1.38-.14-1.96-.47-.69-.39-1.13-.98-1.33-1.72-.37-1.35-.19-2.64.6-3.82.77-1.15,2.21-1.58,3.51-1.1,1.19.44,1.9,1.32,2.31,2.47.24.68.34,1.39.21,2.1-.19,1.03-.74,1.78-1.72,2.2-.54.23-1.11.32-1.61.32Zm-2.4-3.68c-.21.63.18,1.97.99,2.49.59.37,1.51.53,1.73.28-.7-.12-1.3-.41-1.79-.91-.49-.5-.79-1.11-.93-1.86Z"/>
    <path class="cls-1" d="m.26,41.26c.05-1.18.32-2.28,1.15-3.18.88-.95,2.03-1.05,3.13-.56.32.14.62.36.93.53.14.08.18.18.19.34.03.8.25,1.55.82,2.11.39.38.37.78.3,1.21-.18.97-.64,1.79-1.42,2.41-1.18.95-2.63.96-3.84.05-.9-.68-1.2-1.63-1.25-2.7,0-.07,0-.14,0-.21Zm.76-.07c-.19.57.22,1.74.9,2.21.55.39,1.55.6,1.87.35-1.48-.27-2.37-1.15-2.77-2.56Z"/>
    <path class="cls-1" d="m15.67,44.22c-.05,1.08-.52,2.25-1.67,3.04-1.33.91-2.91.42-3.79-.82-.68-.97-.83-2.08-.7-3.24.04-.36.16-.7.23-1.06.04-.2.17-.22.34-.24.56-.05,1.1-.14,1.62-.37.54-.24.99-.61,1.35-1.07.16-.21.31-.19.51-.09.6.29,1.07.74,1.43,1.29.45.69.69,1.45.69,2.57Zm-5.54-.14c-.18.48.16,1.5.66,2.04.67.71,1.51.89,2.45.8-1.57-.36-2.7-1.18-3.12-2.83Z"/>
    <path class="cls-1" d="m9.75,48.34c.02.68-.1,1.34-.41,1.96-.38.76-1.04,1.17-1.82,1.41-.83.25-1.61.12-2.31-.4-.52-.38-.87-.9-1.09-1.5-.33-.88-.35-1.76,0-2.65.43-1.07,1.56-1.87,2.86-1.78.57.04,1.08.23,1.59.46.22.1.21.32.31.49.21.37.4.75.65,1.09.16.21.24.42.22.67,0,.08,0,.17,0,.26Zm-2.35,2.7c-1.54-.32-2.51-1.23-2.89-2.76-.07.75.12,1.43.6,2,.6.71,1.41.87,2.3.76Z"/>
    <path class="cls-1" d="m12.23,54.07c-.9-.04-1.68-.34-2.17-1.12-.41-.65-.38-1.32.05-1.96.45-.65.55-1.4.59-2.17,0-.12.05-.27.13-.35.07-.07.26-.12.34-.08.83.45,1.66.44,2.49.04.15-.07.26-.05.37.05.67.6.99,1.35,1.03,2.23.04.91-.13,1.78-.76,2.49-.55.62-1.25.89-2.07.87Zm-1.82-2.15c.08.59.39,1.05.89,1.37.48.31,1.28.33,1.64.03-.54.03-1.03-.07-1.47-.32-.46-.26-.78-.65-1.06-1.08Z"/>
    <path class="cls-1" d="m18.17,38.63c-.05.85-.3,1.73-1.2,2.27-.34.2-.71.32-1.11.22-.1-.03-.22-.12-.28-.21-.39-.68-.93-1.19-1.62-1.55-.31-.16-.3-.08-.22-.46.25-1.13.23-2.25-.38-3.29-.15-.26-.15-.27.12-.42.69-.38,1.41-.55,2.19-.35.72.18,1.25.62,1.68,1.21.53.73.77,1.56.81,2.58Z"/>
    <path class="cls-1" d="m5.78,52.7c1.14.59,2.14.28,3.12-.48,0,.2,0,.33,0,.47,0,.71.31,1.23.93,1.57.02.01.04.02.06.03.15.11.4.2.44.34.09.3.14.64.1.95-.16,1.1-1.11,1.69-1.98,1.86-.76.14-1.47.03-2.08-.47-.39-.31-.62-.72-.75-1.2-.21-.77-.17-1.53,0-2.3.05-.24.1-.48.16-.78Zm.32,2.15c-.15.59.23,1.4.8,1.78.37.25,1.07.39,1.3.2-.52-.1-.97-.31-1.35-.68-.37-.36-.6-.81-.75-1.3Z"/>
    <path class="cls-1" d="m11.25,55.07c.14.02.24.02.33.05.62.19,1.22.08,1.79-.16.21-.09.3-.05.42.14.96,1.51.72,3.48-.58,4.61-.4.35-.86.59-1.39.64-.73.07-1.29-.26-1.73-.82-.32-.4-.5-.87-.65-1.35-.05-.17.05-.23.17-.3.3-.19.61-.37.88-.59.61-.51.8-1.19.77-1.96,0-.08-.01-.15-.02-.28Zm1.2,4.48c-.85.01-1.52-.31-1.99-1.02.15,1.07,1.23,1.51,1.99,1.02Z"/>
    <path class="cls-1" d="m16.13,42.16c.35-.09.65-.14.94-.24.33-.1.58-.32.78-.59.09-.11.16-.15.31-.08,1.11.55,1.69,1.43,1.73,2.67.03.94-.27,1.73-1.04,2.31-.46.34-.98.45-1.54.39-.48-.05-.93-.21-1.36-.43-.05-.03-.1-.07-.17-.13.85-1.24.93-2.55.35-3.91Z"/>
    <path class="cls-1" d="m15.67,52.14c.05-.23.08-.42.13-.6.13-.52.17-1.04.09-1.57-.08-.51-.33-.96-.62-1.38-.12-.18-.35-.35-.35-.52,0-.16.24-.31.37-.47,0,0,.01-.01.02-.02.1-.12.17-.32.29-.35.13-.03.29.11.44.17.48.21.98.34,1.51.31.19-.01.29.06.38.23.46.82.62,1.68.29,2.58-.27.71-.81,1.16-1.51,1.41-.23.08-.48.13-.72.19-.09.02-.18.02-.32.03Z"/>
    <path class="cls-1" d="m3.78,45.67c-.16.34-.34.69-.5,1.06-.27.62-.34,1.28-.3,1.96.02.39.1.4-.35.53-.72.21-1.39.14-1.91-.45-.37-.41-.56-.92-.59-1.48-.05-.88.08-1.7.69-2.38.12-.13.19-.14.31,0,.29.34.69.51,1.11.58.51.09,1.04.13,1.55.19Zm-1.47,3.05c-.94-.22-1.47-.81-1.7-1.73-.1.47.03.89.32,1.25.35.44.83.58,1.39.48Z"/>
    <path class="cls-1" d="m7.47,58.61c.15.03.29.08.44.09.22.01.45,0,.67,0,.13,0,.19.02.23.15.19.59.47,1.13.96,1.53.17.14.37.25.57.35.14.07.17.14.09.27-.2.36-.54.55-.91.64-.57.14-1.13.12-1.64-.24-.42-.29-.61-.71-.67-1.19-.06-.54.07-1.06.24-1.59Zm1.54,2.58c-.3-.16-.61-.26-.82-.47-.22-.2-.34-.5-.53-.81,0,.53.12.94.54,1.2.25.16.52.18.82.08Z"/>
    <path class="cls-1" d="m6.14,44.44c.85-.91,1.35-1.92,1.32-3.14.52.16,1.01.31,1.51.47-.05.2-.14.45-.17.7-.05.46-.08.92-.09,1.39,0,.53-.43.88-.92.7-.45-.16-.9-.14-1.35-.11-.08,0-.16,0-.3,0Z"/>
    <path class="cls-1" d="m3.16,49.91c.13.27.26.58.42.86.28.48.67.85,1.12,1.15.22.15.23.21.08.43-.22.32-.57.39-.9.39-.94.01-1.66-.61-1.85-1.54-.06-.29-.07-.6-.08-.89,0-.06.07-.16.13-.17.36-.09.72-.15,1.08-.23Zm.66,2.29c-.59-.21-1-.58-1.32-1.1-.05.66.82,1.33,1.32,1.1Z"/>
    <path class="cls-1" d="m15.18,55.23c-.2.05-.29-.07-.35-.27-.06-.19-.15-.37-.25-.54-.06-.1-.05-.15.03-.23.27-.28.52-.58.79-.87.06-.06.14-.12.22-.14.32-.09.64-.16.96-.25.17-.05.16.08.17.17.04.64-.13,1.21-.57,1.68-.26.28-.57.47-1,.46Z"/>
    <path class="cls-1" d="m5.21,56.69c-.53-.12-.93-.39-1.23-.79-.5-.67-.54-1.43-.42-2.22,0-.06.13-.17.19-.16.37.05.71-.01,1.02-.21.02-.01.06,0,.14-.02-.27,1.17-.41,2.32.29,3.4Z"/>
  </g>
  <path class="cls-2" d="m15.06,64.02c-.36-.45-.77-.83-1.21-1.18-.2.33-.45.64-.74.92.13.1.27.19.4.3.95.79,1.57,1.77,1.71,3,.14,1.25-.31,2.33-1.13,3.25-.32.36-.7.67-1.12,1.07-.02-.2-.04-.28-.04-.36.01-.63.07-1.25.04-1.88-.07-1.41-1.41-2.78-2.78-2.82-1.76-.05-3.15.66-4.11,2.17-.86,1.34-.49,2.64.61,3.57,1.22,1.03,2.69,1.16,4.2,1.09.12,0,.25,0,.38,0-.03.14-.06.28-.1.41-.02.06-.06.12-.1.18-.78,1.03-1.56,2.06-2.35,3.08-.66.85-1.36,1.69-1.76,2.7-.57,1.44-.45,2.79.63,3.96.86.92,1.99,1.27,3.22,1.34.33.02.66,0,.99.01.51-.17,1.03-.35,1.54-.52.04-.06.06-.15.11-.18.53-.31.84-.8,1.07-1.35.2-.48.22-1.49-.01-1.95-.01.18-.03.39-.04.6-.05,1.04-.54,1.84-1.44,2.33-1.11.61-2.3.68-3.49.23-.99-.37-1.7-1.04-1.93-2.09-.27-1.19.07-2.29.68-3.32.56-.95,1.35-1.71,2.1-2.49.87-.91,1.65-1.88,1.98-3.13.03-.09.11-.2.2-.24.63-.26,1.22-.57,1.72-1.05.19-.18.31-.12.47.06.16.19.34.36.52.54.13-.05.24-.11.35-.19-.25-.29-.45-.61-.56-1.01-.03-.11.03-.26.09-.37.18-.34.41-.65.56-1,.91-2.02.76-3.94-.65-5.7Zm-3.15,7.32s-.02.06-.03.1c-.18.72-.3.78-1.05.86-.97.11-1.91.03-2.8-.37-.53-.23-.97-.59-1.24-1.13-.28-.57-.27-1.12.05-1.67.7-1.19,1.74-1.83,3.12-1.84,1.01,0,1.69.55,2.03,1.53.29.85.11,1.69-.07,2.52Z"/>
  <path class="cls-1" d="m10.71,63.87c.38.06.81.05,1.19.01,0,0,0,0,.01,0,1-.39,1.53-1.4,1.27-2.45-.06-.25-.18-.5-.29-.78-.52.37-1.04.42-1.58.35-.07,0-.17.06-.21.13-.32.49-.78.82-1.3,1.06-.14.07-.19.16-.15.29.18.59.44,1.12,1.06,1.39Zm.86-.48c-.26.2-.52.13-.77.02-.27-.12-.46-.33-.48-.65.35.37.73.62,1.26.63Z"/>
  <path class="cls-2" d="m16.57,26.8c1.37-1.53,2.48-3.78,2.48-3.78,0,0-2.02-.45-3.92-.45-.01,0-.02.01-.03.02-1.65.83-3.09,1.28-3.22,1.02-.11-.23.78-.91,2.09-1.63.23-.53.36-1.2.42-1.9-.7.65-1.24,1.07-1.3,1.01-.07-.07.51-.77,1.35-1.62.09-2.07-.26-4.22-.26-4.22,0,0-1.88.79-3.53,1.91-.29,1.24-.6,2.2-.71,2.17-.09-.02,0-.79.2-1.81-.55.41-1.06.86-1.42,1.32.11,1.6,0,2.84-.27,2.87-.28.03-.62-1.28-.8-2.96-.99-1.8-2.74-3.59-2.74-3.59,0,0-1.34,2.14-1.91,4.11,1.01,1.2,1.63,2.23,1.44,2.41-.16.14-.84-.34-1.68-1.15-.02.2-.02.4,0,.58.07.62.24,1.19.48,1.69,1.45.41,2.5.89,2.43,1.14-.06.26-1.31.18-2.87-.17C1.47,24.37.05,25.77.05,25.77c0,0,1.43.89,2.76,1.29.92-.57,1.56-.92,1.61-.85.04.06-.41.44-1.13.97.28.05.55.08.78.05.45-.05.87-.18,1.22-.36.3-.28.6-.5.91-.68.34-.39.87-.6,1.42-.51-.34.6-.65,1.27-.9,2.03-.82,2.49-.63,4.75-.25,6.38.25-.29.54-.54.86-.74-.27-1.44-.33-3.31.34-5.33.23-.69.52-1.31.83-1.87.28.3.46.69.45,1.12.08.47.06,1.02-.07,1.62,0,0,0,0,0,0,.04.39.15.8.34,1.21.11.23.29.46.5.68.07-.9.15-1.49.22-1.49.08,0,.13.74.12,1.82,1.03.91,2.51,1.64,2.51,1.64,0,0,.42-1.86.28-3.29-1.23-1.23-2.05-2.35-1.85-2.55.19-.19,1.21.5,2.38,1.58.57-.05,1.17-.21,1.76-.5.17-.08.33-.19.5-.31-1.15-.28-1.93-.61-1.89-.82.05-.26,1.27-.27,2.83-.04Z"/>
</svg>