<svg width="265" height="14" viewBox="0 0 265 14" fill="none" xmlns="http://www.w3.org/2000/svg">
<path d="M195.41 6.35291C196.773 0.917193 202.936 0.0809288 208.502 0.0674407C208.521 1.78043 207.699 3.29111 205.943 4.3162C204.263 5.30084 202.189 5.96176 200.565 6.64965H206.485C206.971 4.55899 208.147 2.76507 210.706 1.63206C213.358 0.458597 216.291 0.0674407 219.522 0C219.41 1.78043 218.644 3.31808 216.869 4.34318C215.226 5.30084 213.209 5.94827 211.472 6.69012C213.097 6.69012 214.927 6.71709 216.757 6.66314C217.075 6.66314 217.598 6.24501 217.654 5.98873C218.681 1.37579 225.834 -0.148369 230.429 0.134881C230.429 3.02134 228.449 4.55899 221.8 6.67663C224.079 6.67663 225.984 6.69012 227.889 6.66314C228.113 6.66314 228.487 6.43384 228.543 6.2585C229.794 1.5916 234.65 0.472085 240.197 0.0404644C240.552 0.0134881 240.925 0.0404644 241.467 0.0404644C241.318 1.75346 240.589 3.30459 238.815 4.32969C237.153 5.30084 235.136 5.94827 233.399 6.69012C234.986 6.69012 236.854 6.71709 238.722 6.66314C239.002 6.66314 239.487 6.3664 239.525 6.16408C240.421 2.13113 245.034 0.620454 249.76 0.161858C250.563 0.0809288 251.403 0.161858 252.486 0.161858C251.609 3.73621 248.714 5.75944 243.97 6.58221C245.744 6.69012 247.332 6.7036 248.975 6.08315C254.111 4.15435 260.76 4.58597 265 7.04081C261.881 8.44357 258.669 9.30681 255.008 9.11798C252.412 8.9831 250.077 8.28172 247.742 7.51289C246.697 7.1622 245.333 7.29708 244.063 7.35103C248.844 8.25474 251.833 10.251 252.468 13.8928C246.846 13.9332 240.683 12.4765 239.562 7.89056C239.506 7.64777 238.946 7.32406 238.591 7.31057C236.779 7.25662 234.967 7.28359 233.343 7.28359C235.098 8.02544 237.097 8.67287 238.778 9.61704C240.608 10.6421 241.318 12.2068 241.504 13.8658C235.659 14.5132 230.149 11.91 228.599 7.87707C228.505 7.63429 227.964 7.31057 227.609 7.29708C225.853 7.24313 224.079 7.27011 222.192 7.37801C226.88 8.30869 230.037 10.197 230.541 13.8658C224.62 14.4728 219.241 11.9505 217.635 7.89056C217.542 7.64777 217.094 7.31057 216.795 7.29708C214.946 7.24313 213.078 7.27011 211.472 7.27011C213.227 8.01195 215.245 8.67287 216.926 9.64402C218.7 10.6556 219.391 12.2068 219.559 13.8388C214.18 14.6346 207.998 11.8561 206.784 8.10637C206.578 7.45894 206.242 7.22964 205.308 7.25662C203.646 7.31057 201.965 7.27011 200.21 7.37801C204.86 8.32218 208.129 10.1431 208.596 13.8523C202.75 14.6616 196.98 12.0854 195.505 7.5804C140.425 7.5804 195.41 6.35723 195.41 6.35291Z" fill="#F2D5B3"/>
<line x1="-8.74228e-08" y1="7" x2="196" y2="6.99998" stroke="#F2D5B3" stroke-width="2"/>
</svg>
