<?xml version="1.0" encoding="utf-8"?>
<!-- Generator: Adobe Illustrator 27.3.1, SVG Export Plug-In . SVG Version: 6.00 Build 0)  -->
<svg version="1.1" id="Layer_1" xmlns="http://www.w3.org/2000/svg" xmlns:xlink="http://www.w3.org/1999/xlink" x="0px" y="0px"
	 viewBox="0 0 19.9 69.7" style="enable-background:new 0 0 19.9 69.7;" xml:space="preserve">
<style type="text/css">
	.st0{fill:#005D22;}
	.st1{fill:#4C2683;}
</style>
<path class="st0" d="M15,48.9c-0.4-0.5-0.8-0.8-1.2-1.2c-0.2,0.3-0.4,0.6-0.7,0.9c0.1,0.1,0.3,0.2,0.4,0.3c0.9,0.8,1.6,1.8,1.7,3
	c0.1,1.2-0.3,2.3-1.1,3.2c-0.3,0.4-0.7,0.7-1.1,1.1c0-0.2,0-0.3,0-0.4c0-0.6,0.1-1.2,0-1.9c-0.1-1.4-1.4-2.8-2.8-2.8
	c-1.8,0-3.2,0.7-4.1,2.2c-0.9,1.3-0.5,2.6,0.6,3.6c1.2,1,2.7,1.2,4.2,1.1c0.1,0,0.2,0,0.4,0c0,0.1-0.1,0.3-0.1,0.4
	c0,0.1-0.1,0.1-0.1,0.2c-0.8,1-1.6,2.1-2.3,3.1c-0.7,0.8-1.4,1.7-1.8,2.7c-0.6,1.4-0.4,2.8,0.6,4c0.9,0.9,2,1.3,3.2,1.3
	c0.3,0,0.7,0,1,0c0.5-0.2,1-0.3,1.5-0.5c0-0.1,0.1-0.2,0.1-0.2c0.5-0.3,0.8-0.8,1.1-1.3c0.2-0.5,0.2-1.5,0-1.9c0,0.2,0,0.4,0,0.6
	c-0.1,1-0.5,1.8-1.4,2.3c-1.1,0.6-2.3,0.7-3.5,0.2c-1-0.4-1.7-1-1.9-2.1c-0.3-1.2,0.1-2.3,0.7-3.3c0.6-1,1.4-1.7,2.1-2.5
	c0.9-0.9,1.6-1.9,2-3.1c0-0.1,0.1-0.2,0.2-0.2c0.6-0.3,1.2-0.6,1.7-1c0.2-0.2,0.3-0.1,0.5,0.1c0.2,0.2,0.3,0.4,0.5,0.5
	c0.1,0,0.2-0.1,0.4-0.2c-0.2-0.3-0.4-0.6-0.6-1c0-0.1,0-0.3,0.1-0.4c0.2-0.3,0.4-0.7,0.6-1C16.6,52.5,16.4,50.6,15,48.9L15,48.9z
	 M11.9,56.2C11.9,56.2,11.8,56.3,11.9,56.2c-0.2,0.8-0.3,0.9-1.1,1c-1,0.1-1.9,0-2.8-0.4c-0.5-0.2-1-0.6-1.2-1.1
	c-0.3-0.6-0.3-1.1,0.1-1.7c0.7-1.2,1.7-1.8,3.1-1.8c1,0,1.7,0.5,2,1.5C12.2,54.5,12.1,55.4,11.9,56.2L11.9,56.2z"/>
<g>
	<g>
		<path class="st1" d="M9.6,25.7c-0.8,0-1.4-0.1-2-0.5c-0.7-0.4-1.1-1-1.3-1.7C6,22.2,6.2,20.9,7,19.7c0.8-1.1,2.2-1.6,3.5-1.1
			c1.2,0.4,1.9,1.3,2.3,2.5c0.2,0.7,0.3,1.4,0.2,2.1c-0.2,1-0.7,1.8-1.7,2.2C10.7,25.6,10.2,25.7,9.6,25.7L9.6,25.7z M7.2,22
			c-0.2,0.6,0.2,2,1,2.5c0.6,0.4,1.5,0.5,1.7,0.3c-0.7-0.1-1.3-0.4-1.8-0.9S7.4,22.8,7.2,22z"/>
		<path class="st1" d="M0.2,26.1c0.1-1.2,0.3-2.3,1.1-3.2c0.9-1,2-1,3.1-0.6c0.3,0.1,0.6,0.4,0.9,0.5c0.1,0.1,0.2,0.2,0.2,0.3
			c0,0.8,0.2,1.5,0.8,2.1c0.4,0.4,0.4,0.8,0.3,1.2c-0.2,1-0.6,1.8-1.4,2.4c-1.2,1-2.6,1-3.8,0c-0.9-0.7-1.2-1.6-1.2-2.7
			C0.2,26.2,0.2,26.2,0.2,26.1L0.2,26.1z M1,26c-0.2,0.6,0.2,1.7,0.9,2.2c0.6,0.4,1.5,0.6,1.9,0.4C2.3,28.3,1.4,27.5,1,26z"/>
		<path class="st1" d="M15.6,29.1c-0.1,1.1-0.5,2.2-1.7,3c-1.3,0.9-2.9,0.4-3.8-0.8c-0.7-1-0.8-2.1-0.7-3.2c0-0.4,0.2-0.7,0.2-1.1
			c0-0.2,0.2-0.2,0.3-0.2c0.6,0,1.1-0.1,1.6-0.4c0.5-0.2,1-0.6,1.4-1.1c0.2-0.2,0.3-0.2,0.5-0.1c0.6,0.3,1.1,0.7,1.4,1.3
			C15.4,27.2,15.6,28,15.6,29.1L15.6,29.1z M10.1,28.9c-0.2,0.5,0.2,1.5,0.7,2c0.7,0.7,1.5,0.9,2.4,0.8
			C11.6,31.4,10.5,30.6,10.1,28.9L10.1,28.9z"/>
		<path class="st1" d="M9.7,33.2c0,0.7-0.1,1.3-0.4,2c-0.4,0.8-1,1.2-1.8,1.4c-0.8,0.2-1.6,0.1-2.3-0.4c-0.5-0.4-0.9-0.9-1.1-1.5
			c-0.3-0.9-0.3-1.8,0-2.7c0.4-1.1,1.6-1.9,2.9-1.8c0.6,0,1.1,0.2,1.6,0.5c0.2,0.1,0.2,0.3,0.3,0.5c0.2,0.4,0.4,0.8,0.6,1.1
			c0.2,0.2,0.2,0.4,0.2,0.7C9.7,33,9.7,33.1,9.7,33.2L9.7,33.2z M7.3,35.9c-1.5-0.3-2.5-1.2-2.9-2.8c-0.1,0.8,0.1,1.4,0.6,2
			C5.7,35.9,6.5,36,7.3,35.9L7.3,35.9z"/>
		<path class="st1" d="M12.2,38.9c-0.9,0-1.7-0.3-2.2-1.1c-0.4-0.7-0.4-1.3,0.1-2c0.4-0.7,0.6-1.4,0.6-2.2c0-0.1,0.1-0.3,0.1-0.3
			c0.1-0.1,0.3-0.1,0.3-0.1c0.8,0.5,1.7,0.4,2.5,0c0.1-0.1,0.3,0,0.4,0c0.7,0.6,1,1.3,1,2.2c0,0.9-0.1,1.8-0.8,2.5
			C13.7,38.7,13,38.9,12.2,38.9z M10.4,36.8c0.1,0.6,0.4,1,0.9,1.4c0.5,0.3,1.3,0.3,1.6,0c-0.5,0-1-0.1-1.5-0.3
			C11,37.6,10.7,37.2,10.4,36.8z"/>
		<path class="st1" d="M18.1,23.5c0,0.9-0.3,1.7-1.2,2.3c-0.3,0.2-0.7,0.3-1.1,0.2c-0.1,0-0.2-0.1-0.3-0.2c-0.4-0.7-0.9-1.2-1.6-1.5
			c-0.3-0.2-0.3-0.1-0.2-0.5c0.2-1.1,0.2-2.2-0.4-3.3c-0.1-0.3-0.1-0.3,0.1-0.4c0.7-0.4,1.4-0.5,2.2-0.4c0.7,0.2,1.2,0.6,1.7,1.2
			C17.8,21.6,18.1,22.5,18.1,23.5L18.1,23.5z"/>
		<path class="st1" d="M5.7,37.6c1.1,0.6,2.1,0.3,3.1-0.5c0,0.2,0,0.3,0,0.5c0,0.7,0.3,1.2,0.9,1.6c0,0,0,0,0.1,0
			c0.1,0.1,0.4,0.2,0.4,0.3c0.1,0.3,0.1,0.6,0.1,1c-0.2,1.1-1.1,1.7-2,1.9c-0.8,0.1-1.5,0-2.1-0.5c-0.4-0.3-0.6-0.7-0.8-1.2
			c-0.2-0.8-0.2-1.5,0-2.3C5.6,38.1,5.7,37.9,5.7,37.6L5.7,37.6z M6.1,39.7c-0.2,0.6,0.2,1.4,0.8,1.8c0.4,0.2,1.1,0.4,1.3,0.2
			c-0.5-0.1-1-0.3-1.3-0.7C6.4,40.7,6.2,40.2,6.1,39.7z"/>
		<path class="st1" d="M11.2,39.9c0.1,0,0.2,0,0.3,0c0.6,0.2,1.2,0.1,1.8-0.2c0.2-0.1,0.3,0,0.4,0.1c1,1.5,0.7,3.5-0.6,4.6
			c-0.4,0.3-0.9,0.6-1.4,0.6C11,45.3,10.5,45,10,44.4C9.7,44,9.5,43.5,9.4,43c-0.1-0.2,0.1-0.2,0.2-0.3c0.3-0.2,0.6-0.4,0.9-0.6
			c0.6-0.5,0.8-1.2,0.8-2C11.2,40.1,11.2,40,11.2,39.9L11.2,39.9z M12.4,44.4c-0.9,0-1.5-0.3-2-1C10.6,44.5,11.6,44.9,12.4,44.4z"/>
		<path class="st1" d="M16.1,27c0.4-0.1,0.6-0.1,0.9-0.2c0.3-0.1,0.6-0.3,0.8-0.6c0.1-0.1,0.2-0.1,0.3-0.1c1.1,0.5,1.7,1.4,1.7,2.7
			c0,0.9-0.3,1.7-1,2.3c-0.5,0.3-1,0.5-1.5,0.4c-0.5,0-0.9-0.2-1.4-0.4c-0.1,0-0.1-0.1-0.2-0.1C16.6,29.7,16.7,28.4,16.1,27L16.1,27
			z"/>
		<path class="st1" d="M15.6,37c0.1-0.2,0.1-0.4,0.1-0.6c0.1-0.5,0.2-1,0.1-1.6c-0.1-0.5-0.3-1-0.6-1.4c-0.1-0.2-0.4-0.3-0.4-0.5
			c0-0.2,0.2-0.3,0.4-0.5c0,0,0,0,0,0c0.1-0.1,0.2-0.3,0.3-0.3c0.1,0,0.3,0.1,0.4,0.2c0.5,0.2,1,0.3,1.5,0.3c0.2,0,0.3,0.1,0.4,0.2
			c0.5,0.8,0.6,1.7,0.3,2.6c-0.3,0.7-0.8,1.2-1.5,1.4c-0.2,0.1-0.5,0.1-0.7,0.2C15.8,37,15.8,37,15.6,37L15.6,37z"/>
		<path class="st1" d="M3.7,30.5c-0.2,0.3-0.3,0.7-0.5,1.1c-0.3,0.6-0.3,1.3-0.3,2C3,33.9,3,34,2.6,34.1c-0.7,0.2-1.4,0.1-1.9-0.5
			c-0.4-0.4-0.6-0.9-0.6-1.5c-0.1-0.9,0.1-1.7,0.7-2.4c0.1-0.1,0.2-0.1,0.3,0c0.3,0.3,0.7,0.5,1.1,0.6C2.7,30.4,3.2,30.5,3.7,30.5
			L3.7,30.5z M2.3,33.6c-0.9-0.2-1.5-0.8-1.7-1.7c-0.1,0.5,0,0.9,0.3,1.2C1.2,33.5,1.7,33.7,2.3,33.6L2.3,33.6z"/>
		<path class="st1" d="M7.4,43.5c0.2,0,0.3,0.1,0.4,0.1c0.2,0,0.4,0,0.7,0c0.1,0,0.2,0,0.2,0.2c0.2,0.6,0.5,1.1,1,1.5
			c0.2,0.1,0.4,0.2,0.6,0.3c0.1,0.1,0.2,0.1,0.1,0.3c-0.2,0.4-0.5,0.5-0.9,0.6c-0.6,0.1-1.1,0.1-1.6-0.2c-0.4-0.3-0.6-0.7-0.7-1.2
			C7.1,44.5,7.2,44,7.4,43.5L7.4,43.5z M9,46.1c-0.3-0.2-0.6-0.3-0.8-0.5c-0.2-0.2-0.3-0.5-0.5-0.8c0,0.5,0.1,0.9,0.5,1.2
			C8.4,46.1,8.7,46.2,9,46.1L9,46.1z"/>
		<path class="st1" d="M6.1,29.3c0.8-0.9,1.3-1.9,1.3-3.1c0.5,0.2,1,0.3,1.5,0.5c-0.1,0.2-0.1,0.5-0.2,0.7c-0.1,0.5-0.1,0.9-0.1,1.4
			c0,0.5-0.4,0.9-0.9,0.7c-0.4-0.2-0.9-0.1-1.3-0.1C6.3,29.3,6.2,29.3,6.1,29.3L6.1,29.3z"/>
		<path class="st1" d="M3.1,34.8c0.1,0.3,0.3,0.6,0.4,0.9c0.3,0.5,0.7,0.8,1.1,1.2c0.2,0.2,0.2,0.2,0.1,0.4
			c-0.2,0.3-0.6,0.4-0.9,0.4c-0.9,0-1.7-0.6-1.9-1.5c-0.1-0.3-0.1-0.6-0.1-0.9C1.9,35.1,2,35,2,35C2.4,34.9,2.7,34.9,3.1,34.8z
			 M3.8,37.1c-0.6-0.2-1-0.6-1.3-1.1C2.4,36.6,3.3,37.3,3.8,37.1z"/>
		<path class="st1" d="M15.1,40.1c-0.2,0-0.3-0.1-0.4-0.3c-0.1-0.2-0.1-0.4-0.2-0.5c-0.1-0.1-0.1-0.2,0-0.2c0.3-0.3,0.5-0.6,0.8-0.9
			c0.1-0.1,0.1-0.1,0.2-0.1c0.3-0.1,0.6-0.2,1-0.2c0.2,0,0.2,0.1,0.2,0.2c0,0.6-0.1,1.2-0.6,1.7C15.9,39.9,15.6,40.1,15.1,40.1
			L15.1,40.1z"/>
		<path class="st1" d="M5.2,41.5c-0.5-0.1-0.9-0.4-1.2-0.8c-0.5-0.7-0.5-1.4-0.4-2.2c0-0.1,0.1-0.2,0.2-0.2c0.4,0,0.7,0,1-0.2
			c0,0,0.1,0,0.1,0C4.6,39.3,4.4,40.5,5.2,41.5L5.2,41.5z"/>
	</g>
	<path class="st1" d="M10.7,48.7c0.4,0.1,0.8,0,1.2,0c0,0,0,0,0,0c1-0.4,1.5-1.4,1.3-2.5c-0.1-0.2-0.2-0.5-0.3-0.8
		c-0.5,0.4-1,0.4-1.6,0.3c-0.1,0-0.2,0.1-0.2,0.1c-0.3,0.5-0.8,0.8-1.3,1.1c-0.1,0.1-0.2,0.2-0.1,0.3C9.8,47.9,10,48.5,10.7,48.7z
		 M11.5,48.2c-0.3,0.2-0.5,0.1-0.8,0c-0.3-0.1-0.5-0.3-0.5-0.7C10.6,48,11,48.2,11.5,48.2L11.5,48.2z"/>
</g>
<path class="st0" d="M16.5,11.7c1.4-1.5,2.5-3.8,2.5-3.8s-2-0.4-3.9-0.4c0,0,0,0,0,0c-1.6,0.8-3.1,1.3-3.2,1
	c-0.1-0.2,0.8-0.9,2.1-1.6c0.2-0.5,0.4-1.2,0.4-1.9c-0.7,0.7-1.2,1.1-1.3,1c-0.1-0.1,0.5-0.8,1.4-1.6c0.1-2.1-0.3-4.2-0.3-4.2
	S12.2,0.9,10.6,2C10.3,3.3,10,4.2,9.9,4.2c-0.1,0,0-0.8,0.2-1.8C9.5,2.8,9,3.2,8.7,3.7c0.1,1.6,0,2.8-0.3,2.9c-0.3,0-0.6-1.3-0.8-3
	C6.6,1.8,4.9,0,4.9,0S3.5,2.2,2.9,4.1c1,1.2,1.6,2.2,1.4,2.4C4.2,6.7,3.5,6.2,2.7,5.4c0,0.2,0,0.4,0,0.6C2.8,6.6,3,7.2,3.2,7.7
	c1.5,0.4,2.5,0.9,2.4,1.1C5.6,9.1,4.3,9,2.8,8.6c-1.3,0.6-2.7,2-2.7,2s1.4,0.9,2.8,1.3c0.9-0.6,1.6-0.9,1.6-0.9c0,0.1-0.4,0.4-1.1,1
	c0.3,0.1,0.5,0.1,0.8,0.1c0.4-0.1,0.9-0.2,1.2-0.4c0.3-0.3,0.6-0.5,0.9-0.7c0.3-0.4,0.9-0.6,1.4-0.5c-0.3,0.6-0.7,1.3-0.9,2
	C5.9,15.1,6,17.3,6.4,19c0.2-0.3,0.5-0.5,0.9-0.7C7,16.8,7,14.9,7.6,12.9c0.2-0.7,0.5-1.3,0.8-1.9c0.3,0.3,0.5,0.7,0.4,1.1
	c0.1,0.5,0.1,1-0.1,1.6l0,0c0,0.4,0.1,0.8,0.3,1.2c0.1,0.2,0.3,0.5,0.5,0.7c0.1-0.9,0.1-1.5,0.2-1.5c0.1,0,0.1,0.7,0.1,1.8
	c1,0.9,2.5,1.6,2.5,1.6s0.4-1.9,0.3-3.3c-1.2-1.2-2.1-2.3-1.9-2.6c0.2-0.2,1.2,0.5,2.4,1.6c0.6-0.1,1.2-0.2,1.8-0.5
	c0.2-0.1,0.3-0.2,0.5-0.3c-1.1-0.3-1.9-0.6-1.9-0.8C13.8,11.5,15,11.5,16.5,11.7L16.5,11.7z"/>
</svg>
