<?xml version="1.0" encoding="UTF-8"?>
<svg id="Layer_1" data-name="Layer 1" xmlns="http://www.w3.org/2000/svg" viewBox="0 0 8.65 29.34">
  <defs>
    <style>
      .cls-1 {
        fill: #005c0a;
      }

      .cls-1, .cls-2 {
        stroke: #000;
        stroke-miterlimit: 10;
      }

      .cls-2 {
        fill: #a3071d;
      }
    </style>
  </defs>
  <path class="cls-1" d="m8.15,20.19c0,2.45,0,4.89,0,7.34,0,.68-.41,1.18-1.08,1.3-.06.01-.13.01-.2.01-1.69,0-3.37,0-5.06,0-.78,0-1.32-.54-1.32-1.32,0-4.08,0-8.16,0-12.24,0-.75,0-1.5,0-2.25.02-1.38.48-2.61,1.28-3.72.3-.42.62-.82.93-1.22.16-.21.24-.43.23-.7,0-1.64,0-3.27,0-4.91,0-.04,0-.08,0-.11-.21-.45-.06-.92-.09-1.38,0-.06.07-.13.11-.19.02-.03.07-.07.07-.1,0-.17.11-.2.24-.2.35,0,.7,0,1.06,0,.34,0,.68,0,1.02,0,.14,0,.26.02.25.2,0,.02,0,.05.02.06.21.12.17.33.17.52,0,.23.01.46,0,.69,0,.13-.06.25-.09.37-.01.05-.02.1-.02.14,0,1.69,0,3.37.02,5.06,0,.16.09.34.18.48.3.42.63.81.93,1.22.66.91,1.12,1.91,1.26,3.03.05.37.06.75.06,1.12,0,2.26,0,4.53,0,6.79h0Z"/>
  <rect class="cls-2" x=".5" y="15.28" width="7.65" height="6.58"/>
</svg>